<svg width="68" height="68" viewBox="0 0 68 68" fill="none" xmlns="http://www.w3.org/2000/svg">
<g clip-path="url(#clip0)">
<rect x="1.01492" y="41.6119" width="17.2537" height="25.3731" fill="#FF5A50"/>
<rect x="48" y="42" width="19" height="25" fill="#FF5A50"/>
<path d="M48.7333 40.8H19.2668C18.6412 40.8 18.1335 41.3066 18.1335 41.9333V66.8666C18.1335 67.4934 18.6412 67.9999 19.2668 67.9999H48.7335C49.3602 67.9999 49.8668 67.4934 49.8668 66.8666V41.9333C49.8668 41.3066 49.3601 40.8 48.7333 40.8ZM47.6 65.7333H20.4V43.0668H47.6V65.7333Z" fill="black"/>
<path d="M48.7333 40.8H19.2668C18.6412 40.8 18.1335 41.3066 18.1335 41.9333V66.8666C18.1335 67.4934 18.6412 67.9999 19.2668 67.9999H48.7335C49.3602 67.9999 49.8668 67.4934 49.8668 66.8666V41.9333C49.8668 41.3066 49.3601 40.8 48.7333 40.8ZM47.6 65.7333H20.4V43.0668H47.6V65.7333Z" fill="black"/>
<path d="M19.2667 40.8H1.13329C0.507742 40.8 0 41.3066 0 41.9333V66.8666C0 67.4935 0.507742 68 1.13329 68H19.2666C19.8921 68 20.3999 67.4935 20.3999 66.8668V41.9333C20.4 41.3066 19.8923 40.8 19.2667 40.8ZM18.1333 65.7333H2.26671V43.0668H18.1334V65.7333H18.1333Z" fill="black"/>
<path d="M66.8668 40.8H48.7334C48.1066 40.8 47.6001 41.3066 47.6001 41.9333V66.8666C47.6001 67.4934 48.1066 67.9999 48.7334 67.9999H66.8667C67.4934 67.9999 68 67.4934 68 66.8666V41.9333C68.0001 41.3066 67.4935 40.8 66.8668 40.8ZM65.7334 65.7333H49.8668V43.0668H65.7335V65.7333H65.7334Z" fill="black"/>
<path d="M44.2 49.8669H23.8C23.1745 49.8669 22.6667 50.3735 22.6667 51.0002V62.3335C22.6667 62.9603 23.1745 63.4668 23.8 63.4668H44.2C44.8267 63.4668 45.3333 62.9603 45.3333 62.3335V51.0002C45.3333 50.3735 44.8267 49.8669 44.2 49.8669ZM43.0667 61.2002H24.9333V52.1335H43.0666V61.2002H43.0667Z" fill="black"/>
<path d="M37.4 45.3333H35.1333V47.6H37.4V45.3333Z" fill="black"/>
<path d="M32.8668 45.3333H30.6001V47.6H32.8668V45.3333Z" fill="black"/>
<path d="M28.3333 45.3333H26.0666V47.6H28.3333V45.3333Z" fill="black"/>
<path d="M41.9334 45.3333H39.6667V47.6H41.9334V45.3333Z" fill="black"/>
<path d="M19.2666 49.8669H1.13333V52.1337H19.2666V49.8669Z" fill="black"/>
<path d="M12.4665 45.3333H7.93326V47.6H12.4665V45.3333Z" fill="black"/>
<path d="M12.4665 54.3999H7.93326V56.6666H12.4665V54.3999Z" fill="black"/>
<path d="M66.8665 49.8669H48.7332V52.1337H66.8665V49.8669Z" fill="black"/>
<path d="M58.9334 51H56.6667V66.8667H58.9334V51Z" fill="black"/>
<path d="M60.0665 45.3333H55.5332V47.6H60.0665V45.3333Z" fill="black"/>
<path d="M54.4 56.6667H52.1333V60.0667H54.4V56.6667Z" fill="black"/>
<path d="M63.4666 56.6667H61.1999V60.0667H63.4666V56.6667Z" fill="black"/>
<path d="M48.4013 18.4655L44.2001 14.2642V1.13329C44.2001 0.507742 43.6935 0 43.0668 0H24.9333C24.3078 0 23.8001 0.507742 23.8001 1.13329V14.2641L19.5988 18.4653C19.2746 18.7894 19.1772 19.2768 19.3528 19.7006C19.5285 20.1234 19.9421 20.3999 20.4001 20.3999H47.6001C48.0579 20.3999 48.4728 20.1234 48.6473 19.7006C48.8229 19.2768 48.7255 18.7895 48.4013 18.4655ZM23.1359 18.1333L25.7346 15.5345C25.9476 15.3226 26.0666 15.0336 26.0666 14.7333V2.26671H41.9333V14.7334C41.9333 15.0337 42.0523 15.3227 42.2654 15.5347L44.8641 18.1334H23.1359V18.1333Z" fill="black"/>
<path d="M61.2 24.9334C58.6998 24.9334 56.6667 26.9666 56.6667 29.4667V30.6H58.9334V29.4667C58.9334 28.2167 59.95 27.2 61.2001 27.2C62.4502 27.2 63.4668 28.2165 63.4668 29.4667V41.9334H65.7335V29.4667C65.7333 26.9666 63.7002 24.9334 61.2 24.9334Z" fill="black"/>
<path d="M64.5999 36.2668H61.1999V38.5335H64.5999V36.2668Z" fill="black"/>
<path d="M32.8668 34H21.5335C20.9079 34 20.4002 34.5065 20.4002 35.1333V41.9333C20.4002 42.56 20.9079 43.0666 21.5335 43.0666H32.8668C33.4923 43.0666 34 42.56 34 41.9333V35.1333C34 34.5065 33.4923 34 32.8668 34ZM31.7333 40.8H22.6666V36.2667H31.7333V40.8Z" fill="black"/>
<path d="M21.5333 36.2668H18.1333V38.5335H21.5333V36.2668Z" fill="black"/>
<path d="M36.2667 36.2668H32.8667V38.5335H36.2667V36.2668Z" fill="black"/>
<path d="M19.2667 0H1.13329C0.507742 0 0 0.507742 0 1.13329V14.7333C0 15.3588 0.507742 15.8666 1.13329 15.8666H19.2666C19.8921 15.8666 20.3999 15.3588 20.3999 14.7333V1.13329C20.4 0.507742 19.8923 0 19.2667 0ZM18.1333 13.6H2.26671V2.26671H18.1334V13.6H18.1333Z" fill="black"/>
<path d="M15.8667 6.80005H13.6V11.3333H15.8667V6.80005Z" fill="black"/>
<path d="M66.8668 0H48.7334C48.1066 0 47.6001 0.507742 47.6001 1.13329V14.7333C47.6001 15.3588 48.1066 15.8666 48.7334 15.8666H66.8667C67.4934 15.8666 68 15.3588 68 14.7333V1.13329C68.0001 0.507742 67.4935 0 66.8668 0ZM65.7334 13.6H49.8668V2.26671H65.7335V13.6H65.7334Z" fill="black"/>
<path d="M54.4 6.80005H52.1333V11.3333H54.4V6.80005Z" fill="black"/>
<path d="M20.4 22.6667H0V24.9335H20.4V22.6667Z" fill="black"/>
<path d="M4.5334 20.3999H2.26669V30.5999H4.5334V20.3999Z" fill="black"/>
<path d="M3.4 29.4668C1.52548 29.4668 0 30.9923 0 32.8668C0 34.7413 1.52548 36.2668 3.4 36.2668C5.27452 36.2668 6.8 34.7413 6.8 32.8668C6.8 30.9923 5.27452 29.4668 3.4 29.4668ZM3.4 34.0001C2.77552 34.0001 2.26671 33.4913 2.26671 32.8668C2.26671 32.2423 2.77552 31.7335 3.4 31.7335C4.02448 31.7335 4.53329 32.2423 4.53329 32.8668C4.53329 33.4913 4.02448 34.0001 3.4 34.0001Z" fill="black"/>
<path d="M9.06677 20.3999H6.80006V30.5999H9.06677V20.3999Z" fill="black"/>
<path d="M7.93324 29.4668C6.05872 29.4668 4.53323 30.9923 4.53323 32.8668C4.53323 34.7413 6.05872 36.2668 7.93324 36.2668C9.80775 36.2668 11.3332 34.7413 11.3332 32.8668C11.3332 30.9923 9.80775 29.4668 7.93324 29.4668ZM7.93324 34.0001C7.30875 34.0001 6.79995 33.4913 6.79995 32.8668C6.79995 32.2423 7.30875 31.7335 7.93324 31.7335C8.55772 31.7335 9.06652 32.2423 9.06652 32.8668C9.06666 33.4913 8.55772 34.0001 7.93324 34.0001Z" fill="black"/>
<path d="M13.6 20.3999H11.3333V30.5999H13.6V20.3999Z" fill="black"/>
<path d="M12.4667 29.4668C10.5922 29.4668 9.06674 30.9923 9.06674 32.8668C9.06674 34.7413 10.5922 36.2668 12.4667 36.2668C14.3413 36.2668 15.8667 34.7413 15.8667 32.8668C15.8667 30.9923 14.3413 29.4668 12.4667 29.4668ZM12.4667 34.0001C11.8423 34.0001 11.3335 33.4913 11.3335 32.8668C11.3335 32.2423 11.8423 31.7335 12.4667 31.7335C13.0912 31.7335 13.6 32.2423 13.6 32.8668C13.6 33.4913 13.0912 34.0001 12.4667 34.0001Z" fill="black"/>
</g>
<defs>
<clipPath id="clip0">
<rect width="68" height="68" fill="white"/>
</clipPath>
</defs>
</svg>
