<svg width="68" height="68" viewBox="0 0 68 68" fill="none" xmlns="http://www.w3.org/2000/svg">
<rect x="26.3881" y="36.5373" width="26.3881" height="6.08955" fill="#FF5A50"/>
<path d="M61.9499 0H9.75512C9.02173 0 8.427 0.594734 8.427 1.32812V7.41652H6.05019C5.3168 7.41652 4.72206 8.01125 4.72206 8.74464C4.72206 9.47803 5.3168 10.0728 6.05019 10.0728H8.427V17.3275H6.05019C5.3168 17.3275 4.72206 17.9223 4.72206 18.6556C4.72206 19.389 5.3168 19.9838 6.05019 19.9838H8.427V27.2385H6.05019C5.3168 27.2385 4.72206 27.8333 4.72206 28.5666C4.72206 29.3 5.3168 29.8948 6.05019 29.8948H8.427V37.1496H6.05019C5.3168 37.1496 4.72206 37.7444 4.72206 38.4778C4.72206 39.2112 5.3168 39.8059 6.05019 39.8059H8.427V47.0606H6.05019C5.3168 47.0606 4.72206 47.6554 4.72206 48.3888C4.72206 49.1222 5.3168 49.7169 6.05019 49.7169H8.427V56.9716H6.05019C5.3168 56.9716 4.72206 57.5664 4.72206 58.2998C4.72206 59.0332 5.3168 59.6279 6.05019 59.6279H8.427V66.6719C8.427 67.4053 9.02173 68 9.75512 68H61.9499C62.6833 68 63.278 67.4053 63.278 66.6719V1.32812C63.278 0.594734 62.6834 0 61.9499 0ZM60.6218 65.3438H11.0832V59.6279H13.2684C14.0018 59.6279 14.5965 59.0332 14.5965 58.2998C14.5965 57.5664 14.0018 56.9716 13.2684 56.9716H11.0832V49.7169H13.2684C14.0018 49.7169 14.5965 49.1222 14.5965 48.3888C14.5965 47.6554 14.0018 47.0606 13.2684 47.0606H11.0832V39.8059H13.2684C14.0018 39.8059 14.5965 39.2112 14.5965 38.4778C14.5965 37.7444 14.0018 37.1496 13.2684 37.1496H11.0832V29.8948H13.2684C14.0018 29.8948 14.5965 29.3 14.5965 28.5666C14.5965 27.8333 14.0018 27.2385 13.2684 27.2385H11.0832V19.9838H13.2684C14.0018 19.9838 14.5965 19.389 14.5965 18.6556C14.5965 17.9223 14.0018 17.3275 13.2684 17.3275H11.0832V10.0728H13.2684C14.0018 10.0728 14.5965 9.47803 14.5965 8.74464C14.5965 8.01125 14.0018 7.41652 13.2684 7.41652H11.0832V2.65625H17.0787V54.8405C17.0787 55.5739 17.6734 56.1687 18.4068 56.1687C19.1402 56.1687 19.7349 55.5739 19.7349 54.8405V2.65625H60.6218V65.3438Z" fill="black"/>
<path d="M19.6323 60.0418C19.4151 59.5116 18.8593 59.1754 18.2885 59.227C17.7485 59.2759 17.2841 59.6588 17.1319 60.1786C16.9799 60.698 17.1698 61.273 17.5983 61.6029C18.0373 61.941 18.6602 61.9663 19.1255 61.6659C19.658 61.3221 19.8764 60.6273 19.6323 60.0418Z" fill="black"/>
<path d="M22.6117 37.7827L25.3084 40.9082C25.5856 41.2294 25.8813 41.5307 26.1919 41.8121H23.6173C22.8839 41.8121 22.2892 42.4068 22.2892 43.1402C22.2892 43.8736 22.8839 44.4683 23.6173 44.4683H33.0819H45.8039H55.499C56.2324 44.4683 56.8271 43.8736 56.8271 43.1402C56.8271 42.4068 56.2324 41.8121 55.499 41.8121H52.6917C52.9357 41.5915 53.1712 41.3599 53.3944 41.1147L56.4049 37.8094C56.759 37.4205 56.8503 36.8595 56.6378 36.3785C56.4252 35.8974 55.9488 35.587 55.423 35.587H52.1164C50.7103 34.2593 45.9709 30.2873 39.5931 30.2873C33.2571 30.2873 28.8953 34.1997 27.5479 35.587H23.6175C23.098 35.587 22.6261 35.8899 22.4099 36.3621C22.1934 36.8345 22.2723 37.3896 22.6117 37.7827ZM39.5928 32.9435C42.9454 32.9435 45.8264 34.303 47.7993 35.587H31.6516C33.4776 34.3086 36.2176 32.9435 39.5928 32.9435ZM28.1295 38.2433H51.5713H52.4167L51.4303 39.3261C49.9914 40.906 47.9406 41.8121 45.8038 41.8121H33.0818C30.8666 41.8121 28.7665 40.8503 27.3195 39.1731L26.5173 38.2433H28.1295Z" fill="black"/>
<path d="M31.1916 23.9809C30.8938 24.9575 30.2425 25.6542 30.2211 25.6769C29.713 26.201 29.7231 27.038 30.2452 27.5497C30.5036 27.8031 30.8394 27.9294 31.1747 27.9294C31.5191 27.9294 31.8632 27.7964 32.1233 27.531C32.2312 27.4209 33.1931 26.4103 33.6939 24.8776C34.3956 22.73 33.8379 20.5843 32.1233 18.8352C31.6101 18.3116 30.769 18.3031 30.2452 18.8165C29.7214 19.33 29.713 20.1708 30.2264 20.6946C31.236 21.7243 31.5516 22.7994 31.1916 23.9809Z" fill="black"/>
<path d="M39.4041 23.9809C39.1067 24.9562 38.4566 25.6526 38.4338 25.6767C37.9255 26.2008 37.9356 27.0379 38.4575 27.5497C38.7161 27.8031 39.0519 27.9294 39.3872 27.9294C39.7316 27.9294 40.0757 27.7963 40.3358 27.5311C40.4438 27.4208 41.4056 26.4104 41.9064 24.8775C42.6082 22.73 42.0504 20.5841 40.3358 18.8352C39.3261 17.8052 39.0104 16.7301 39.3706 15.5487C39.6718 14.5609 40.3348 13.8592 40.3358 13.8582C40.8492 13.3345 40.841 12.4936 40.317 11.9801C39.7932 11.4663 38.9524 11.475 38.4389 11.9988C38.331 12.1089 37.3691 13.1195 36.8683 14.6522C36.1667 16.7997 36.7243 18.9455 38.4389 20.6947C39.4486 21.7242 39.7644 22.7994 39.4041 23.9809Z" fill="black"/>
<path d="M47.6167 23.9809C47.3189 24.9575 46.6676 25.6542 46.6462 25.6769C46.1381 26.201 46.1482 27.038 46.6702 27.5497C46.9287 27.8031 47.2645 27.9294 47.5998 27.9294C47.9442 27.9294 48.2883 27.7964 48.5483 27.531C48.6563 27.4209 49.6182 26.4103 50.119 24.8776C50.8206 22.73 50.263 20.5843 48.5483 18.8352C48.0352 18.3116 47.1939 18.3031 46.6702 18.8165C46.1464 19.33 46.1381 20.1708 46.6515 20.6946C47.6612 21.7243 47.9769 22.7994 47.6167 23.9809Z" fill="black"/>
</svg>
