<svg width="68" height="68" viewBox="0 0 68 68" fill="none" xmlns="http://www.w3.org/2000/svg">
<rect x="4.05969" y="49.7313" width="19.2836" height="7.10448" fill="#FF5A50"/>
<rect x="7.10449" y="57.8508" width="12.1791" height="3.04477" fill="#FF5A50"/>
<rect x="2.02985" y="44.6567" width="23.3433" height="4.0597" fill="#FF5A50"/>
<path d="M66.751 60.5872H59.8496L58.174 44.671L60.0283 47.452L60.4877 49.752C60.7094 50.8608 61.4064 51.8043 62.4008 52.344C62.9643 52.6495 63.5831 52.8033 64.2054 52.8033C64.6817 52.8033 65.1603 52.7128 65.6162 52.5307C66.5982 52.1381 67.3766 51.3461 67.7534 50.3573C68.129 49.3685 68.0735 48.2598 67.6006 47.3128L66.6322 45.3748C66.6288 45.3668 66.622 45.3623 66.6175 45.3555C66.6152 45.3499 66.6152 45.3442 66.6129 45.3386L59.8247 32.8935C59.6991 32.6627 59.4955 32.4828 59.2522 32.3843L56.1862 31.1579C58.4874 29.2889 59.9627 26.4401 59.9627 23.2519C59.9627 21.5469 59.5136 19.868 58.6877 18.3655L58.1039 12.5254C59.9254 11.7538 61.0941 10.2389 61.0941 8.54406C61.0941 6.10821 58.6764 4.11587 55.6601 4.02196C54.4575 1.93458 52.2275 0.624451 49.7804 0.624451C47.3332 0.624451 45.1033 1.93458 43.9006 4.02196C40.8844 4.11587 38.4667 6.10821 38.4667 8.54406C38.4667 10.2389 39.6354 11.7538 41.4569 12.5254L40.8731 18.3655C40.0472 19.868 39.598 21.5469 39.598 23.2519C39.598 26.4401 41.0733 29.2889 43.3757 31.1568L40.3097 32.3832C40.1286 32.4556 39.9691 32.5744 39.8469 32.7271L36.0285 37.5004L31.4148 33.8099L30.1827 31.7564C29.9734 31.4068 29.7064 31.1104 29.4179 30.84V27.7774C29.4179 26.3043 28.4687 25.0598 27.1552 24.5914V19.8578H28.2866C30.1579 19.8578 31.6807 18.335 31.6807 16.4637V9.67543C31.6807 7.80414 30.1579 6.28131 28.2866 6.28131H23.7611C21.8898 6.28131 20.367 7.80414 20.367 9.67543V16.4637C20.367 18.335 21.8898 19.8578 23.7611 19.8578H24.8925V24.5914C23.5789 25.0598 22.6297 26.3043 22.6297 27.7774V32.3029V32.3074C22.3469 32.9806 22.2202 33.7148 22.3118 34.4661C22.4736 35.7751 23.2146 36.9155 24.3449 37.5943L26.4854 38.8784L34.0068 45.4596C35.2705 46.5638 37.1226 46.5876 38.4146 45.5117L41.5768 42.8756L39.7112 60.5872H19.9325L21.2596 57.933C23.3775 57.115 24.8902 55.0706 24.8902 52.6676V50.1967C26.2037 49.7283 27.1529 48.4838 27.1529 47.0107C27.1529 45.1394 25.6301 43.6166 23.7588 43.6166H3.39412C1.52283 43.6166 0 45.1394 0 47.0107C0 48.4838 0.949221 49.7283 2.26274 50.1967V52.6676C2.26274 55.0706 3.77539 57.115 5.89332 57.933L7.22042 60.5872H1.13137C0.506855 60.5872 0 61.094 0 61.7186V66.244C0 66.8686 0.506855 67.3754 1.13137 67.3754H66.751C67.3755 67.3754 67.8823 66.8686 67.8823 66.244V61.7186C67.8823 61.094 67.3755 60.5872 66.751 60.5872ZM24.8902 17.595H23.7588C23.1354 17.595 22.6274 17.087 22.6274 16.4637V9.67543C22.6274 9.05204 23.1354 8.54406 23.7588 8.54406H24.8902V17.595ZM65.5766 48.3231C65.7701 48.71 65.7927 49.1468 65.6388 49.5518C65.485 49.9557 65.1784 50.2679 64.7767 50.4286C64.3547 50.5972 63.8807 50.57 63.4802 50.3528C63.0797 50.1356 62.7968 49.7543 62.7074 49.3074L62.4155 47.8468L65.0143 47.1974L65.5766 48.3231ZM58.0337 34.3337L63.9259 45.136L61.593 45.7187L57.6151 39.7518L55.9724 33.5089L58.0337 34.3337ZM55.5504 41.3539L57.5755 60.5872H41.9864L44.0104 41.3539H55.5504ZM44.4607 39.0911L46.1283 32.7498C46.1736 32.7667 46.22 32.7792 46.2652 32.795C46.4926 32.8787 46.7211 32.9591 46.9553 33.027C47.0447 33.053 47.1352 33.0733 47.2246 33.096C47.4407 33.1525 47.6568 33.2068 47.8774 33.2487C47.9883 33.2702 48.1003 33.2826 48.2112 33.2996C48.4159 33.3313 48.6196 33.3652 48.8278 33.3856C48.9737 33.3992 49.1208 33.4003 49.2667 33.4082C49.4387 33.4173 49.6073 33.4342 49.7804 33.4342C49.9535 33.4342 50.1221 33.4173 50.294 33.4082C50.4411 33.4003 50.587 33.3992 50.733 33.3856C50.9412 33.3664 51.1448 33.3324 51.3496 33.2996C51.4605 33.2826 51.5725 33.2702 51.6833 33.2487C51.904 33.2068 52.1201 33.1514 52.3361 33.096C52.4255 33.0722 52.516 33.053 52.6054 33.027C52.8396 32.9591 53.0693 32.8799 53.2955 32.795C53.3408 32.7781 53.3872 32.7667 53.4324 32.7498L55.1012 39.0911H44.4607ZM40.7294 8.54406C40.7294 7.31765 42.2839 6.28131 44.1235 6.28131C44.1891 6.28131 44.2514 6.28923 44.3147 6.29602L44.4969 6.31299C44.9732 6.34128 45.4303 6.0754 45.6226 5.63077C46.3376 3.96426 47.9702 2.8872 49.7804 2.8872C51.5906 2.8872 53.2231 3.96426 53.9393 5.63077C54.1305 6.0754 54.5944 6.35033 55.065 6.31299L55.2472 6.29602C55.3094 6.28923 55.3716 6.28131 55.4372 6.28131C57.2769 6.28131 58.8314 7.31765 58.8314 8.54406C58.8314 9.44802 57.9172 10.3124 56.6082 10.6473C56.0663 10.7853 55.7065 11.2989 55.7619 11.8556L56.4498 18.7264H43.1109L43.7977 11.8567C43.8531 11.3001 43.4933 10.7864 42.9514 10.6484C41.6436 10.3124 40.7294 9.44802 40.7294 8.54406ZM41.8608 23.2519C41.8608 22.4848 41.975 21.7223 42.1945 20.9892H57.3651C57.5857 21.7223 57.7 22.4848 57.7 23.2519C57.7 26.3926 55.857 29.1045 53.2005 30.3841C52.9437 30.5074 52.6812 30.6171 52.4153 30.711C52.4029 30.7156 52.3905 30.7201 52.378 30.7246C50.6923 31.3141 48.8662 31.3141 47.1805 30.7246C47.168 30.7201 47.1556 30.7156 47.1431 30.711C46.8773 30.6171 46.6159 30.5074 46.358 30.3841C43.7038 29.1045 41.8608 26.3926 41.8608 23.2519ZM27.1529 8.54406H28.2843C28.9077 8.54406 29.4157 9.05204 29.4157 9.67543V16.4637C29.4157 17.087 28.9077 17.595 28.2843 17.595H27.1529V8.54406ZM26.0216 26.646C26.6449 26.646 27.1529 27.154 27.1529 27.7774V29.7437C27.1461 29.7426 27.1382 29.7426 27.1314 29.7414C27.1043 29.7381 27.0805 29.7256 27.0534 29.7222C26.9911 29.7143 26.9301 29.7256 26.869 29.72C26.6721 29.7041 26.4775 29.7019 26.2806 29.7132C26.1822 29.7188 26.0849 29.7188 25.9888 29.7313C25.7557 29.7607 25.5283 29.815 25.3031 29.8829C25.207 29.9123 25.1142 29.9428 25.0203 29.9779C24.9773 29.9937 24.9332 30.0039 24.8913 30.0209V27.7774H24.8902C24.8902 27.154 25.3982 26.646 26.0216 26.646ZM25.5091 35.654C24.9784 35.3361 24.6311 34.8021 24.5564 34.1889C24.5067 33.7895 24.5892 33.3992 24.7657 33.0518C24.7703 33.0428 24.7782 33.0371 24.7827 33.0281C24.8314 32.9353 24.88 32.8561 24.9298 32.7826C24.9909 32.6977 25.0508 32.6117 25.1255 32.5371C25.2839 32.3775 25.4683 32.2565 25.6618 32.1626C25.6776 32.1547 25.6935 32.1445 25.7093 32.1366C25.9028 32.0494 26.1087 31.9951 26.3191 31.9736C26.335 31.9725 26.3497 31.9703 26.3655 31.9691C26.5703 31.9522 26.7773 31.9703 26.981 32.0166C27.0025 32.0212 27.024 32.0257 27.0443 32.0313C27.2559 32.0879 27.4618 32.175 27.6507 32.304C27.6564 32.3074 27.6632 32.3097 27.6688 32.3131C27.8962 32.4715 28.0942 32.674 28.2424 32.9206L29.1238 34.3903L26.9787 36.5353L25.5091 35.654ZM36.9642 43.7727C36.5343 44.1302 35.9154 44.1246 35.4945 43.7558L28.807 37.9043L30.6296 36.0817L35.4957 39.9747C35.9822 40.365 36.6949 40.287 37.0853 39.7982L41.4241 34.3744L43.5861 33.5101L41.9875 39.5867L36.9642 43.7727ZM3.39412 48.1421C2.77073 48.1421 2.26274 47.6341 2.26274 47.0107C2.26274 46.3873 2.77073 45.8793 3.39412 45.8793H23.7588C24.3822 45.8793 24.8902 46.3873 24.8902 47.0107C24.8902 47.6341 24.3822 48.1421 23.7588 48.1421H3.39412ZM4.52549 52.6676V50.4048H13.5765H22.6274V52.6676C22.6274 54.5389 21.1046 56.0617 19.2333 56.0617H7.91961C6.04832 56.0617 4.52549 54.5389 4.52549 52.6676ZM18.5341 58.3244L17.4028 60.5872H14.7078V58.3244H18.5341ZM12.4451 58.3244V60.5872H9.75017L8.61879 58.3244H12.4451ZM65.6196 65.1127H2.26274V62.8499H9.05098H18.102H40.7294H58.8314H65.6196V65.1127Z" fill="black"/>
<path d="M53.1745 45.8793H46.3863C45.7617 45.8793 45.2549 46.3862 45.2549 47.0107V50.4048C45.2549 52.9006 47.2846 54.9303 49.7804 54.9303C52.2762 54.9303 54.3059 52.9006 54.3059 50.4048V47.0107C54.3059 46.3862 53.799 45.8793 53.1745 45.8793ZM52.0431 50.4048C52.0431 51.6527 51.0283 52.6676 49.7804 52.6676C48.5325 52.6676 47.5176 51.6527 47.5176 50.4048V48.1421H52.0431V50.4048Z" fill="black"/>
<path d="M14.7078 34.5657H12.4451V40.2226H14.7078V34.5657Z" fill="black"/>
<path d="M20.3647 36.8284H18.1019V41.3539H20.3647V36.8284Z" fill="black"/>
<path d="M9.05098 36.8284H6.78824V41.3539H9.05098V36.8284Z" fill="black"/>
<path d="M14.7078 30.0402H12.4451V32.3029H14.7078V30.0402Z" fill="black"/>
<path d="M9.05098 32.303H6.78824V34.5657H9.05098V32.303Z" fill="black"/>
<path d="M20.3647 32.303H18.1019V34.5657H20.3647V32.303Z" fill="black"/>
</svg>
