<svg width="25" height="26" viewBox="0 0 25 26" fill="none" xmlns="http://www.w3.org/2000/svg">
<g clip-path="url(#clip0)">
<path d="M24.5833 20.9148H0.41665C0.18667 20.9148 0 21.1011 0 21.3316C0 23.8595 2.05625 25.9165 4.58335 25.9165H20.4167C22.9438 25.9165 25 23.8595 25 21.3316C25 21.1011 24.8138 20.9148 24.5833 20.9148ZM20.4167 25.0828H4.58335C2.65625 25.0828 1.06416 23.6215 0.85625 21.7484H24.1433C23.9354 23.6216 22.3438 25.0828 20.4167 25.0828Z" fill="black"/>
<path d="M12.5003 14.6627C12.4982 14.6627 12.4966 14.6627 12.4949 14.6627C10.8528 14.6627 9.27573 15.2675 8.05493 16.3662L8.61201 16.9856C9.67993 16.0253 11.0587 15.4964 12.4954 15.4964C12.4966 15.4964 12.4987 15.4964 12.5 15.4964C14.8091 15.4964 16.7833 16.7026 17.5295 18.5686L18.3037 18.2594C17.4299 16.0744 15.1516 14.6627 12.5003 14.6627Z" fill="black"/>
<path d="M15.685 17.4779C13.5591 15.7218 10.4016 16.0232 8.64581 18.1489L9.28829 18.6795C10.7512 16.9081 13.3829 16.6563 15.1537 18.1202C15.4412 18.3582 15.6954 18.6333 15.9092 18.9371L16.5917 18.4582C16.335 18.0935 16.03 17.7638 15.685 17.4779Z" fill="black"/>
<path d="M14.833 18.9501C13.5197 17.6626 11.4055 17.6851 10.1188 18.9976L10.7142 19.5812C11.6792 18.5966 13.2655 18.5804 14.2496 19.5449C14.7267 20.0122 15.0001 20.6632 15.0001 21.3317H15.8334C15.8334 20.4406 15.4688 19.5724 14.833 18.9501Z" fill="black"/>
<path d="M17.1016 16.3301C17.0953 16.3301 17.0895 16.3301 17.0833 16.3301H16.6666V17.1637H17.0849C19.4504 17.1729 21.4703 19.0018 21.6683 21.3664L22.4983 21.2972C22.2654 18.5084 19.8958 16.3301 17.1016 16.3301Z" fill="black"/>
<path d="M19.568 18.9538C18.8214 18.2861 17.8589 17.9481 16.8593 18.0048C15.8593 18.0602 14.941 18.5025 14.2731 19.249L14.8939 19.805C15.4135 19.2243 16.1277 18.8801 16.9056 18.8367C17.6877 18.7963 18.4314 19.0555 19.0127 19.5749C19.5364 20.0438 19.8735 20.6861 19.9618 21.3842L20.7889 21.2792C20.6751 20.3822 20.2414 19.5561 19.568 18.9538Z" fill="black"/>
<path d="M17.5813 19.7259C16.4684 19.44 15.3318 20.1152 15.0463 21.2281L15.8538 21.4348C16.0247 20.7671 16.7072 20.3624 17.3747 20.5337C17.8168 20.6467 18.1626 20.9922 18.2755 21.4348L19.083 21.2281C18.8938 20.4903 18.3188 19.9147 17.5813 19.7259Z" fill="black"/>
<path d="M8.34214 16.3393C6.90005 16.2217 5.49839 16.6719 4.39546 17.6084C3.29214 18.545 2.61963 19.8554 2.50171 21.2976L3.33213 21.366C3.43169 20.1451 4.00088 19.0364 4.93423 18.2445C5.86797 17.4521 7.05381 17.0699 8.27422 17.1708C8.95132 17.2258 9.61963 17.4363 10.2071 17.7785L10.6267 17.0579C9.93213 16.6531 9.14214 16.4047 8.34214 16.3393Z" fill="black"/>
<path d="M8.37543 18.0162C6.32587 17.7628 4.4475 19.2274 4.19501 21.2806L5.02211 21.3823C5.21835 19.7855 6.6767 18.6506 8.27338 18.8431C9.6038 19.0073 10.6475 20.0514 10.8113 21.3823L11.6392 21.2806C11.4283 19.5692 10.0862 18.2267 8.37543 18.0162Z" fill="black"/>
<path d="M8.44335 19.7364C7.90541 19.5956 7.34379 19.6735 6.86376 19.954C6.38334 20.2353 6.04125 20.6871 5.90082 21.2256L6.70707 21.4366C6.79164 21.1135 6.99706 20.8422 7.285 20.6738C7.57294 20.505 7.91 20.4587 8.2329 20.5433C8.66957 20.6575 9.01205 20.9997 9.12621 21.4369L9.93207 21.2256C9.74169 20.4971 9.17128 19.9265 8.44335 19.7364Z" fill="black"/>
<path d="M12.5 19.6644C11.5808 19.6644 10.8334 20.4122 10.8334 21.3316H11.6667C11.6667 20.8719 12.0405 20.498 12.5001 20.498C12.9596 20.498 13.3334 20.8719 13.3334 21.3316H14.1668C14.1667 20.4122 13.4192 19.6644 12.5 19.6644Z" fill="black"/>
<path d="M7.49998 2.57532H4.16663V3.40895H7.49998V2.57532Z" fill="black"/>
<path d="M7.49994 4.24243H4.99994V5.07606H7.49994V4.24243Z" fill="black"/>
<path d="M3.24921 9.87111C2.80756 9.09878 2.80756 8.13971 3.24921 7.36733C3.83671 6.33989 3.83671 5.06324 3.24921 4.03579C2.80756 3.26346 2.80756 2.3044 3.24921 1.53202C3.32294 1.40283 3.32255 1.24442 3.24794 1.11562C3.17338 0.987258 3.03588 0.908081 2.88754 0.908081H1.66669V1.74171H2.25004C1.96088 2.63244 2.05253 3.62193 2.52587 4.44931C2.96752 5.22164 2.96752 6.18071 2.52587 6.95308C1.93837 7.98053 1.93837 9.25718 2.52587 10.2846C2.96752 11.057 2.96752 12.016 2.52587 12.7884C1.93837 13.8162 1.93837 15.0925 2.50878 16.0866C2.63627 16.365 2.74418 16.6539 2.82963 16.9439L3.6288 16.7085C3.53212 16.38 3.41005 16.0545 3.24921 15.7065C2.80756 14.9345 2.80756 13.9746 3.24921 13.2027C3.83671 12.1752 3.83671 10.8985 3.24921 9.87111Z" fill="black"/>
<path d="M24.9993 3.9466C24.9651 2.727 23.9459 1.7717 22.7255 1.79588L10.5843 2.15308L9.94883 1.51747C9.55552 1.12441 9.03262 0.908081 8.4772 0.908081C8.47637 0.908081 8.47554 0.908081 8.4751 0.908081H4.6126C4.46304 0.908081 4.3251 0.988088 4.25093 1.11772C3.66343 2.14517 3.66343 3.42182 4.25093 4.44926C4.69258 5.22159 4.69258 6.1807 4.25093 6.95303C3.66343 7.98048 3.66343 9.25713 4.25093 10.2846C4.69258 11.0569 4.69258 12.016 4.25093 12.7883C3.66343 13.8162 3.66343 15.0924 4.25093 16.1199C4.30801 16.2199 4.35801 16.3237 4.40093 16.4308L5.17427 16.1207C5.11758 15.9786 5.0501 15.839 4.97427 15.7064C4.53262 14.9345 4.53262 13.9746 4.97427 13.2026C5.56177 12.1752 5.56177 10.8986 4.97427 9.87111C4.53262 9.09878 4.53262 8.13971 4.97427 7.36733C5.08843 7.16727 5.18052 6.95846 5.2501 6.74339H8.47466C8.47549 6.74339 8.47593 6.74339 8.47676 6.74339C9.03257 6.74339 9.55552 6.52667 9.94883 6.13362L10.5792 5.50299L22.6584 6.21323C22.7017 6.21573 22.7622 6.2149 22.7876 6.217C24.0067 6.217 24.9992 5.22501 25.0001 4.00502L24.9993 3.9466ZM22.7872 5.38332C22.7551 5.37623 22.7347 5.38249 22.7081 5.38122L10.4414 4.66017C10.3226 4.65143 10.2063 4.69725 10.1222 4.78145L9.35967 5.54421C9.12383 5.77969 8.8105 5.90976 8.47632 5.90976C8.47588 5.90976 8.47549 5.90976 8.47505 5.90976H5.4084C5.448 5.26536 5.30342 4.61143 4.97422 4.0354C4.57212 3.33185 4.53628 2.47282 4.86714 1.74171H8.47549C8.47593 1.74171 8.47632 1.74171 8.47676 1.74171C8.81011 1.74171 9.12383 1.87174 9.35967 2.10765L10.1222 2.87041C10.203 2.95125 10.3164 2.99877 10.4289 2.99213L22.7493 2.62907C23.5272 2.60782 24.1447 3.20969 24.1668 4.00453C24.1659 4.76519 23.5472 5.38332 22.7872 5.38332Z" fill="black"/>
<path d="M6.6405 9.87123C6.19885 9.0989 6.19885 8.13984 6.64006 7.3679C6.80671 7.07781 6.92839 6.7656 7.00212 6.43966L6.18923 6.25586C6.13381 6.50052 6.04255 6.73517 5.91716 6.9536C5.32966 7.98105 5.32966 9.2577 5.91716 10.2851C6.35881 11.0575 6.35881 12.017 5.91672 12.7897C5.37297 13.745 5.33049 14.9084 5.80295 15.9008L6.55505 15.5428C6.19924 14.7958 6.23171 13.921 6.64045 13.2028C7.228 12.1753 7.228 10.8987 6.6405 9.87123Z" fill="black"/>
<path d="M2.50004 2.57532H1.66669V3.40895H2.50004V2.57532Z" fill="black"/>
<path d="M2.91669 4.24243H1.66669V5.07606H2.91669V4.24243Z" fill="black"/>
<path d="M3.33334 5.90979H1.66669V6.74342H3.33334V5.90979Z" fill="black"/>
</g>
<defs>
<clipPath id="clip0">
<rect y="0.908081" width="25" height="25.0084" fill="white"/>
</clipPath>
</defs>
</svg>
