<svg width="26" height="24" viewBox="0 0 26 24" fill="none" xmlns="http://www.w3.org/2000/svg">
<path d="M23.7959 16.616V15.6915C23.7959 15.636 23.7919 15.5808 23.7861 15.5261C23.8771 15.4714 23.9616 15.411 24.0383 15.3445C24.378 15.0501 24.5573 14.6614 24.5569 14.2206C24.5567 13.8434 24.4182 13.4838 24.1789 13.206C24.3667 12.9824 24.4736 12.6975 24.468 12.4008C24.4583 11.8738 24.1117 11.4245 23.6383 11.2589C23.7366 11.0536 23.7915 10.8238 23.7915 10.5814V10.3121C24.493 10.2631 25.0488 9.67585 25.0488 8.96067C25.0488 8.85724 25.0271 6.40067 23.1363 4.06817C22.1754 2.88271 20.9034 1.94386 19.3552 1.27763C17.4825 0.471833 15.1926 0.0627234 12.5486 0.0617676C9.21855 0.0629146 6.46872 0.708314 4.37541 1.97961C4.20203 2.08495 4.14671 2.31091 4.25162 2.4845C4.35671 2.65808 4.58216 2.71372 4.75535 2.60838C6.7327 1.40762 9.35474 0.798165 12.5486 0.797018C15.0924 0.797974 17.2849 1.18682 19.0658 1.95323C20.5038 2.57206 21.6818 3.4396 22.567 4.53177C24.2954 6.66392 24.3152 8.86795 24.3152 8.96067C24.3152 9.30248 24.0379 9.58045 23.6969 9.58045H1.4007C1.05966 9.58045 0.782335 9.30248 0.782335 8.96067C0.782335 8.86833 0.794351 8.02469 1.21378 6.86522C1.6725 5.5966 2.41884 4.49334 3.43165 3.58623C3.58271 3.45088 3.59587 3.21841 3.46083 3.06719C3.32579 2.91579 3.09405 2.90279 2.94298 3.03794C0.0817643 5.60081 0.0487671 8.82474 0.0487671 8.96067C0.0487671 9.67585 0.60457 10.2631 1.3059 10.3121V10.5814C1.3059 10.8259 1.36198 11.0576 1.46173 11.2643C1.28225 11.3285 1.11688 11.4329 0.981462 11.5711C0.748384 11.8091 0.623452 12.1206 0.629556 12.4477C0.634706 12.7312 0.735986 12.9963 0.908792 13.2066C0.66961 13.4844 0.531327 13.844 0.531137 14.2206C0.530755 14.6614 0.710046 15.0501 1.04975 15.3445C1.13119 15.415 1.2216 15.4787 1.31887 15.5359C1.31372 15.5875 1.31029 15.6393 1.31029 15.6915V16.6152C0.606858 16.6623 0.0487671 17.2503 0.0487671 17.967C0.0487671 21.0003 2.51097 23.468 5.53717 23.468H19.5604C22.5866 23.468 25.0488 21.0003 25.0488 17.967C25.0488 17.2534 24.4953 16.667 23.7959 16.616ZM23.5586 14.7884C23.2214 15.0807 22.6032 15.2023 21.945 15.1057C21.479 15.0373 21.2337 14.9073 20.9741 14.7695C20.9144 14.7379 20.8542 14.7058 20.7912 14.6746L21.6244 13.8247C21.7283 13.7186 21.8731 13.6578 22.0217 13.6578H23.2149C23.329 13.6578 23.4411 13.6423 23.5502 13.6115C23.7215 13.7641 23.8233 13.9862 23.8235 14.2212C23.8235 14.445 23.7345 14.636 23.5586 14.7884ZM2.03947 10.3159H23.0581V10.5814C23.0581 10.8669 22.9149 11.1192 22.6969 11.2706C22.6908 11.275 22.6845 11.279 22.6782 11.283C22.6625 11.2934 22.6465 11.3031 22.6303 11.3123C22.6246 11.3155 22.619 11.3188 22.6135 11.3218C22.5927 11.3329 22.5715 11.3433 22.5498 11.3526C22.5485 11.3532 22.5473 11.3538 22.5462 11.3543C22.522 11.3645 22.4972 11.3737 22.4718 11.3815C22.4689 11.3824 22.4661 11.3832 22.4632 11.384C22.442 11.3905 22.4205 11.396 22.3986 11.4006C22.3917 11.4021 22.385 11.4035 22.3781 11.4048C22.3593 11.4083 22.3402 11.4113 22.3209 11.4136C22.3137 11.4144 22.3066 11.4153 22.2994 11.4161C22.2736 11.4186 22.2477 11.4201 22.2214 11.4201H2.87604C2.41484 11.4201 2.03947 11.0439 2.03947 10.5816V10.3159ZM1.50503 12.0862C1.60479 11.9844 1.74231 11.9259 1.88269 11.9259H2.06083C2.29868 12.0712 2.57773 12.1552 2.87623 12.1552H22.2214C22.254 12.1552 22.2862 12.1538 22.3183 12.1519C22.3286 12.1513 22.3387 12.1504 22.3488 12.1496C22.3713 12.1477 22.3938 12.1454 22.4161 12.1425C22.427 12.1412 22.438 12.1401 22.4489 12.1385C22.4775 12.1343 22.5059 12.1295 22.534 12.1238C22.5458 12.1213 22.5574 12.1185 22.5693 12.1158C22.5885 12.1114 22.6078 12.1068 22.6269 12.1016C22.6414 12.0978 22.6559 12.0936 22.6702 12.0894C22.6856 12.0848 22.7009 12.0797 22.7161 12.0747C22.7308 12.0699 22.7453 12.0651 22.7598 12.06C22.7848 12.0506 22.8096 12.0408 22.834 12.0305C22.8487 12.0242 22.8632 12.0173 22.8777 12.0106C22.8914 12.0043 22.905 11.9978 22.9183 11.9911C22.9326 11.9839 22.9469 11.9768 22.961 11.9692C22.9771 11.9606 22.9929 11.9514 23.0087 11.9422C23.0182 11.9367 23.028 11.9317 23.0375 11.9259H23.2376C23.5067 11.9259 23.7297 12.1452 23.7347 12.4146C23.7383 12.6023 23.6238 12.7807 23.4434 12.8686H23.4432C23.3698 12.9044 23.2929 12.9227 23.2149 12.9227H22.0215C21.6776 12.9227 21.3421 13.0636 21.101 13.3097L19.6142 14.8264C19.2598 15.1881 18.6979 15.2371 18.2876 14.9589C18.2787 14.9528 18.2699 14.9467 18.2611 14.9404C18.2382 14.9239 18.2155 14.9067 18.1936 14.888C18.1936 14.8878 18.1934 14.8876 18.1932 14.8876L16.2676 13.2338C16.0339 13.0332 15.7358 12.9227 15.4281 12.9227H1.85999C1.78446 12.9227 1.71122 12.9053 1.64198 12.8713H1.64179C1.47318 12.7883 1.36637 12.6207 1.36293 12.4339C1.36045 12.3058 1.411 12.1823 1.50503 12.0862ZM1.2647 14.221C1.2647 13.9876 1.3656 13.7666 1.53536 13.614C1.64064 13.6431 1.74917 13.6578 1.85999 13.6578H15.4281C15.5611 13.6578 15.6896 13.7056 15.7905 13.792L17.3134 15.1C17.2828 15.1011 17.251 15.1017 17.218 15.1017C16.7352 15.1017 16.5157 14.97 16.238 14.8033C15.9233 14.6144 15.5666 14.4003 14.8809 14.4003C14.1954 14.4003 13.8387 14.6144 13.524 14.8033C13.2463 14.97 13.027 15.1017 12.544 15.1017C12.0611 15.1017 11.8417 14.97 11.564 14.8033C11.2493 14.6144 10.8926 14.4003 10.2071 14.4003C9.52144 14.4003 9.16477 14.6144 8.85005 14.8033C8.57234 14.97 8.353 15.1017 7.87006 15.1017C7.38711 15.1017 7.16777 14.97 6.89006 14.8033C6.57535 14.6144 6.21867 14.4003 5.53298 14.4003C4.80857 14.4003 4.45513 14.588 4.11334 14.7695C3.85394 14.9071 3.60884 15.0373 3.14287 15.1055C2.48465 15.2021 1.86647 15.0805 1.52944 14.7884C1.35359 14.636 1.26451 14.445 1.2647 14.221ZM19.5604 22.7329H5.53717C2.91533 22.7329 0.782335 20.5949 0.782335 17.967C0.782335 17.6252 1.05966 17.3472 1.4007 17.3472H17.8426C18.0452 17.3472 18.2094 17.1826 18.2094 16.9796C18.2094 16.7766 18.0452 16.612 17.8426 16.612H2.04386V15.8069C2.25233 15.8505 2.47435 15.8735 2.70495 15.8735C2.88233 15.8735 3.06467 15.8601 3.2493 15.8331C3.84039 15.7463 4.16789 15.5726 4.45685 15.4192C4.75535 15.2608 4.9911 15.1355 5.53317 15.1355C6.01592 15.1355 6.23546 15.2673 6.51317 15.434C6.82788 15.6228 7.18455 15.837 7.87025 15.837C8.55575 15.837 8.91242 15.6228 9.22714 15.434C9.50485 15.2673 9.72419 15.1355 10.2071 15.1355C10.6901 15.1355 10.9094 15.2673 11.1871 15.434C11.5018 15.6228 11.8585 15.837 12.5442 15.837C13.2297 15.837 13.5864 15.6228 13.9011 15.434C14.1788 15.2673 14.3982 15.1355 14.8811 15.1355C15.364 15.1355 15.5834 15.2673 15.8611 15.434C16.1758 15.6228 16.5325 15.837 17.218 15.837C17.5445 15.837 17.8184 15.7895 18.0816 15.6875C18.3298 15.8106 18.6001 15.8721 18.8703 15.8721C19.3321 15.8721 19.7927 15.6936 20.1378 15.3416L20.2404 15.2371C20.3783 15.2858 20.4986 15.3491 20.6314 15.4194C20.9204 15.5728 21.2478 15.7463 21.8389 15.8331C22.0236 15.8603 22.2059 15.8735 22.3833 15.8735C22.6206 15.8735 22.8487 15.8492 23.0625 15.8031V16.612H19.5493C19.3468 16.612 19.1826 16.7766 19.1826 16.9796C19.1826 17.1826 19.3468 17.3472 19.5493 17.3472H23.6969C24.0379 17.3472 24.3154 17.6252 24.3154 17.967C24.3152 20.5949 22.1823 22.7329 19.5604 22.7329Z" fill="black"/>
</svg>
