<svg width="25" height="26" viewBox="0 0 25 26" fill="none" xmlns="http://www.w3.org/2000/svg">
<g clip-path="url(#clip0)">
<path d="M20.6646 0.417702C20.5993 0.41713 20.5341 0.416748 20.4689 0.416748C17.1791 0.416748 13.9875 1.06127 10.9827 2.33275C8.08065 3.56055 5.47445 5.31838 3.23579 7.5576L3.21767 7.57592C2.57261 8.22254 2.57337 9.2746 3.21939 9.92065L4.15952 10.8613C4.47385 11.1757 4.8929 11.3488 5.3396 11.3488H5.33998C5.78706 11.3486 6.20611 11.1753 6.52063 10.8605L6.53741 10.8437C6.67207 10.7094 6.85079 10.6356 7.04172 10.6356H7.05049C7.24714 10.6379 7.43024 10.7174 7.56624 10.8596L9.48122 12.8633C9.67558 13.0667 9.93726 13.1805 10.2178 13.1837H10.2297C10.5058 13.1837 10.7652 13.0761 10.9615 12.8799C11.3678 12.4734 11.3754 11.8046 10.9781 11.389L9.59966 9.94679C9.47664 9.818 9.47015 9.61461 9.58517 9.49364C9.6462 9.42953 9.72822 9.39424 9.81615 9.39424H9.81653C9.90427 9.39424 9.98609 9.42915 10.0467 9.4925L10.4807 9.9466C10.8764 10.3608 11.5183 10.3963 11.9419 10.0279C12.161 9.83708 12.289 9.57263 12.3024 9.283C12.3155 8.99737 12.2099 8.71518 12.0123 8.50855L11.6976 8.17923C11.5356 8.0098 11.4668 7.78026 11.5083 7.54959C11.5497 7.32063 11.6932 7.13136 11.9018 7.03061C14.5845 5.73356 17.4669 5.07588 20.4689 5.07588C20.5272 5.07588 20.5854 5.07607 20.6436 5.07664C21.0893 5.08122 21.5059 4.91045 21.8216 4.59754C22.1384 4.28349 22.3127 3.86468 22.3127 3.41859V2.07727C22.3129 1.17002 21.5734 0.425525 20.6646 0.417702ZM21.5811 3.4184C21.5811 3.66778 21.4836 3.90189 21.3066 4.07723C21.1305 4.25181 20.8967 4.34855 20.6503 4.34435C20.5898 4.34378 20.5295 4.34359 20.4689 4.34359C17.3557 4.34359 14.3661 5.0257 11.5835 6.37121C11.1616 6.57499 10.8719 6.95697 10.7883 7.41908C10.7044 7.88292 10.8431 8.34427 11.1685 8.68484L11.4834 9.01416C11.544 9.0777 11.5753 9.16127 11.5713 9.24904C11.5673 9.33681 11.5284 9.41732 11.4616 9.47533C11.3355 9.58504 11.1328 9.56939 11.0096 9.4406L10.5757 8.9865C10.3784 8.78024 10.1019 8.66195 9.81634 8.66195C9.81596 8.66195 9.81577 8.66195 9.81538 8.66195C9.52547 8.66214 9.25558 8.77834 9.05512 8.98879C8.66811 9.39538 8.67498 10.0384 9.07076 10.4524L10.4492 11.8947C10.5716 12.0229 10.5692 12.2368 10.444 12.3621C10.3855 12.4207 10.3075 12.451 10.226 12.4516C10.144 12.4507 10.0673 12.4171 10.0099 12.3573L8.09496 10.3536C7.82201 10.0679 7.4539 9.90806 7.05888 9.90348C7.05297 9.90329 7.04725 9.90329 7.04153 9.90329C6.65529 9.90329 6.29327 10.0529 6.02129 10.3246L6.01556 10.3303L6.01175 10.3339L6.00278 10.3431C5.82674 10.5194 5.59118 10.6165 5.33979 10.6165C5.33979 10.6165 5.33979 10.6165 5.3396 10.6165C5.0884 10.6165 4.85303 10.5196 4.67699 10.3435L3.73666 9.40282C3.37579 9.04183 3.37522 8.45417 3.73647 8.09203L3.75383 8.07467C5.92477 5.9028 8.45297 4.19763 11.2678 3.00666C14.1819 1.77371 17.2775 1.14865 20.4689 1.14865C20.532 1.14865 20.595 1.14884 20.6579 1.14942H20.6581C21.167 1.154 21.5811 1.57013 21.5811 2.07708V3.4184Z" fill="black"/>
<path d="M21.2032 6.00305C21.001 6.00305 20.8374 6.16695 20.8374 6.369V24.4135C20.8374 24.5852 20.7066 24.6527 20.6663 24.6693C20.6263 24.6859 20.4861 24.7308 20.3648 24.6094L7.4993 11.7396C7.35644 11.5967 7.1247 11.5967 6.98184 11.7396C6.83898 11.8825 6.83898 12.1144 6.98184 12.2573L19.8473 25.1271C20.0426 25.3224 20.2944 25.4251 20.554 25.4251C20.6848 25.4251 20.8177 25.399 20.9465 25.3457C21.3304 25.1866 21.5691 24.8294 21.5691 24.4135V6.369C21.5691 6.16695 21.4052 6.00305 21.2032 6.00305Z" fill="black"/>
<path d="M18.4296 5.5343C17.5495 5.5343 16.8337 6.25037 16.8337 7.13053C16.8337 8.01068 17.5495 8.72675 18.4296 8.72675C19.3094 8.72675 20.0252 8.01068 20.0252 7.13053C20.0252 6.25037 19.3094 5.5343 18.4296 5.5343ZM18.4296 7.99485C17.9531 7.99485 17.5655 7.60714 17.5655 7.13053C17.5655 6.65391 17.9531 6.2664 18.4296 6.2664C18.9058 6.2664 19.2934 6.65391 19.2934 7.13053C19.2934 7.60714 18.9058 7.99485 18.4296 7.99485Z" fill="black"/>
<path d="M12.1405 14.9792C12.1405 15.7943 12.8035 16.4576 13.6185 16.4576C14.4333 16.4576 15.0963 15.7943 15.0963 14.9792C15.0963 14.164 14.4333 13.5007 13.6185 13.5007C12.8035 13.5007 12.1405 14.164 12.1405 14.9792ZM13.6185 14.2328C14.0299 14.2328 14.3647 14.5677 14.3647 14.9792C14.3647 15.3908 14.0299 15.7256 13.6185 15.7256C13.2071 15.7256 12.8722 15.3908 12.8722 14.9792C12.8722 14.5677 13.2071 14.2328 13.6185 14.2328Z" fill="black"/>
<path d="M18.956 13.2809C18.1124 13.2809 17.426 13.9676 17.426 14.8115C17.426 15.6554 18.1124 16.3419 18.956 16.3419C19.7997 16.3419 20.4859 15.6554 20.4859 14.8115C20.4859 13.9676 19.7995 13.2809 18.956 13.2809ZM18.956 15.6098C18.5158 15.6098 18.1578 15.2516 18.1578 14.8115C18.1578 14.3711 18.5158 14.013 18.956 14.013C19.3961 14.013 19.7541 14.3711 19.7541 14.8115C19.7541 15.2516 19.3961 15.6098 18.956 15.6098Z" fill="black"/>
<path d="M20.1937 19.2371C20.1937 18.3378 19.4622 17.6063 18.5635 17.6063H18.2945C17.3956 17.6063 16.6641 18.3378 16.6641 19.2371C16.6641 19.6273 16.9815 19.9446 17.3714 19.9446H17.4673L17.452 20.231C17.4427 20.409 17.5076 20.5853 17.63 20.7146C17.7526 20.844 17.9253 20.9182 18.1034 20.9182H18.7544C18.9325 20.9182 19.105 20.844 19.2276 20.7146C19.3502 20.5853 19.4151 20.409 19.4057 20.231L19.3905 19.9446H19.4864C19.8763 19.9448 20.1937 19.6273 20.1937 19.2371ZM19.1456 19.2127C19.009 19.2127 18.8768 19.2695 18.783 19.3685C18.689 19.4678 18.6394 19.6028 18.6466 19.7389L18.6705 20.1861H18.1873L18.2112 19.7389C18.2184 19.6025 18.1686 19.4676 18.0746 19.3685C17.9808 19.2693 17.8486 19.2127 17.7122 19.2127H17.3964C17.4093 18.7282 17.8072 18.3384 18.2945 18.3384H18.5635C19.0506 18.3384 19.4485 18.7282 19.4614 19.2127H19.1456Z" fill="black"/>
<path d="M15.1085 8.24231C14.085 8.24231 13.2524 9.07515 13.2524 10.0992V10.4161C13.2524 11.4399 14.085 12.2728 15.1085 12.2728C15.5321 12.2728 15.8768 11.9282 15.8768 11.5044V11.3224L16.283 11.3439C16.4753 11.3544 16.6649 11.2842 16.8043 11.152C16.9437 11.0196 17.0237 10.8336 17.0237 10.6414V9.87383C17.0237 9.6817 16.9437 9.49548 16.8043 9.36326C16.6649 9.23103 16.4743 9.16101 16.283 9.17131L15.8768 9.19287V9.01085C15.8768 8.58708 15.5323 8.24231 15.1085 8.24231ZM16.292 9.90379V10.6113L15.6963 10.5796C15.5531 10.5723 15.4121 10.6241 15.3084 10.7225C15.2046 10.821 15.1449 10.9595 15.1449 11.1026V11.5042C15.1449 11.5244 15.1287 11.5407 15.1087 11.5407C14.4886 11.5407 13.9843 11.0362 13.9843 10.4161V10.099C13.9843 9.47888 14.4886 8.97422 15.1087 8.97422C15.1287 8.97422 15.1449 8.99062 15.1449 9.01066V9.41248C15.1449 9.55558 15.2046 9.6941 15.3084 9.79255C15.4121 9.89101 15.5535 9.94271 15.6963 9.93527L16.292 9.90379Z" fill="black"/>
</g>
<defs>
<clipPath id="clip0">
<rect y="0.416748" width="25" height="25.0084" fill="white"/>
</clipPath>
</defs>
</svg>
