<svg width="25" height="26" viewBox="0 0 25 26" fill="none" xmlns="http://www.w3.org/2000/svg">
<g clip-path="url(#clip0)">
<path d="M24.0803 13.3326C24.4124 13.1406 24.65 12.8309 24.7492 12.4604C24.8486 12.0897 24.7977 11.7026 24.6058 11.3704C24.4141 11.0382 24.1043 10.8005 23.7338 10.7011C23.4911 10.636 23.2375 10.6377 22.9977 10.702C22.8222 10.5265 22.6035 10.3981 22.3607 10.333C21.9902 10.2336 21.6031 10.2845 21.271 10.4765C20.9387 10.6682 20.7013 10.9781 20.6019 11.3488C20.4413 11.9481 20.6862 12.5625 21.1678 12.8989L20.7907 14.307C19.978 14.4218 19.0983 14.9687 18.2606 15.8879C18.1582 15.8748 18.0535 15.8645 17.9467 15.8566L19.2789 9.39427C19.3154 9.21759 19.3295 9.03976 19.3234 8.86384C19.3234 8.86327 19.3234 8.8627 19.3234 8.86213C19.3245 4.85572 16.6247 1.36047 12.7554 0.35381C12.5279 0.176748 12.2425 0.0710449 11.9328 0.0710449H8.98251C6.63532 0.0710449 4.42871 0.985546 2.76913 2.64607C1.10974 4.30641 0.196115 6.51396 0.196687 8.86213V8.86384C0.190584 9.03976 0.204698 9.21759 0.241129 9.39427L2.70485 21.3452C2.91752 22.3764 3.83572 23.1248 4.88819 23.1248H11.4983C12.0846 24.0204 12.9139 24.6567 13.86 24.9282C14.2123 25.0293 14.5733 25.0795 14.9388 25.0795C15.7166 25.0795 16.5142 24.8519 17.2919 24.4029C17.4082 24.3356 17.5269 24.2612 17.6461 24.1818C18.0933 24.5081 18.6158 24.7565 19.1918 24.9108C19.6074 25.0223 20.0234 25.0776 20.4297 25.0776C21.1378 25.0776 21.8165 24.9097 22.4112 24.5802C23.4143 24.024 24.1249 23.0561 24.4666 21.7812C24.7738 20.6341 24.8093 19.1552 24.5615 17.8255C24.3107 16.4788 23.8005 15.4689 23.1074 14.9276L23.4843 13.5205C23.6918 13.5029 23.8945 13.4398 24.0803 13.3326ZM18.1134 6.95948C17.8029 6.79997 17.4555 6.71373 17.0956 6.71373H16.4004V5.21099C16.4004 4.47031 15.798 3.86776 15.0576 3.86776H13.6418C13.5147 3.86776 13.3921 3.88589 13.2756 3.9189V1.54077C15.6994 2.44497 17.496 4.48939 18.1134 6.95948ZM13.2756 7.83696V5.21099C13.2756 5.00893 13.4398 4.84466 13.6418 4.84466H15.0576C15.2596 4.84466 15.4238 5.00893 15.4238 5.21099V6.71373H14.7406C14.1482 6.71373 13.6103 7.08121 13.402 7.62823C13.3639 7.72859 13.3213 7.82647 13.2756 7.92225V7.83696ZM12.299 1.41427V9.1924C12.1167 9.34867 11.9206 9.48814 11.7131 9.60892V7.07853C11.7131 6.33785 11.1107 5.73531 10.3703 5.73531H10.1506V1.41427C10.1506 1.21222 10.3148 1.04794 10.5168 1.04794H11.9328C12.1348 1.04794 12.299 1.21222 12.299 1.41427ZM6.0492 7.47826C5.80639 7.01538 5.31582 6.71373 4.77947 6.71373H3.90095V5.5655C3.90095 5.36344 4.06517 5.19916 4.26716 5.19916H5.68298C5.88497 5.19916 6.0492 5.36344 6.0492 5.5655V7.47826ZM7.02576 8.86194V3.56325C7.02576 3.36119 7.18998 3.19691 7.39197 3.19691H8.80798C9.00978 3.19691 9.174 3.36119 9.174 3.56325V5.73531H8.95447C8.21404 5.73531 7.6117 6.33766 7.6117 7.07834V9.487C7.40189 9.34809 7.20562 9.18916 7.02576 9.01248V8.86194ZM8.58826 7.07834C8.58826 6.87648 8.75248 6.71201 8.95447 6.71201H10.3703C10.5723 6.71201 10.7365 6.87648 10.7365 7.07834V10.0121C10.4216 10.0947 10.0941 10.1388 9.75994 10.1388C9.35635 10.1388 8.96191 10.075 8.58826 9.95598V7.07834ZM3.45978 3.33658C4.93473 1.86074 6.89625 1.04794 8.98251 1.04794H9.22531C9.19212 1.16452 9.1742 1.2872 9.1742 1.41427V2.27134C9.05766 2.23834 8.93482 2.22021 8.80798 2.22021H7.39197C6.65173 2.22021 6.0492 2.82256 6.0492 3.56325V4.2734C5.93285 4.24039 5.81001 4.22227 5.68298 4.22227H4.26716C3.52673 4.22227 2.92439 4.82481 2.92439 5.5655V6.71373H2.42447C2.0636 6.71373 1.71551 6.80035 1.40423 6.96081C1.7424 5.60079 2.44373 4.35335 3.45978 3.33658ZM3.66139 21.1479L1.19747 9.19679C1.12118 8.82626 1.21445 8.44542 1.45325 8.15216C1.69224 7.85871 2.04624 7.69043 2.42447 7.69043H4.77947C4.96925 7.69043 5.14034 7.8051 5.20538 7.97586C5.55309 8.88941 6.16135 9.67016 6.96415 10.2338C7.78603 10.8108 8.75286 11.1157 9.75994 11.1157C10.7672 11.1157 11.734 10.8108 12.5559 10.2338C13.3587 9.67016 13.9668 8.88941 14.3147 7.97586C14.3795 7.8051 14.5508 7.69043 14.7406 7.69043H17.0956C17.4738 7.69043 17.8278 7.85871 18.0668 8.15197C18.3056 8.44542 18.3989 8.82626 18.3224 9.19679L16.9501 15.8538C15.5951 15.9356 14.1011 16.3459 13.0063 16.978C12.9738 16.9969 12.9418 17.0157 12.9097 17.035C12.9885 16.75 13.0312 16.45 13.0312 16.1404C13.0312 14.282 11.52 12.7701 9.66229 12.7701C7.80453 12.7701 6.29334 14.282 6.29334 16.1404C6.29334 17.9986 7.80453 19.5105 9.66229 19.5105C10.1279 19.5105 10.5717 19.4154 10.9755 19.2437C10.9204 19.3885 10.8735 19.5368 10.8357 19.6885C10.6377 20.4831 10.6989 21.3341 11.0024 22.1479H4.88819C4.29672 22.1479 3.78079 21.7274 3.66139 21.1479ZM9.66229 18.5336C8.34316 18.5336 7.2699 17.4599 7.2699 16.1404C7.2699 14.8206 8.34316 13.747 9.66229 13.747C10.9816 13.747 12.0549 14.8206 12.0549 16.1404C12.0549 17.4599 10.9816 18.5336 9.66229 18.5336ZM12.2116 22.4241C12.2008 22.4016 12.1886 22.3799 12.1745 22.3595C11.3736 20.9359 11.4718 18.9924 13.4945 17.8242C14.5951 17.1886 16.2062 16.7988 17.5213 16.8156C16.9074 17.691 16.4265 18.6719 16.1879 19.5623C15.8465 20.8373 15.9783 22.0307 16.569 23.0141C16.6703 23.1826 16.7843 23.3425 16.91 23.4936C16.8742 23.5153 16.8387 23.5367 16.8034 23.5569C14.7763 24.7277 13.0417 23.8349 12.2116 22.4241ZM23.6016 18.0047C23.8205 19.1802 23.7906 20.5305 23.5234 21.5285C22.9134 23.805 21.0354 24.3936 19.4445 23.9673C17.8538 23.5411 16.5215 22.0918 17.1313 19.8152C17.3987 18.8171 18.0476 17.6328 18.8248 16.7242C19.6223 15.792 20.448 15.2619 21.101 15.2606L22.362 15.5987C22.9268 15.9265 23.3769 16.7986 23.6016 18.0047ZM23.2436 12.5325C23.1186 12.4991 22.9851 12.5165 22.873 12.5814C22.7608 12.6461 22.679 12.7527 22.6456 12.8779L22.1993 14.5438L21.7692 14.4283L22.2153 12.7626C22.2851 12.502 22.1304 12.2343 21.8701 12.1643C21.6254 12.0988 21.4796 11.8462 21.5453 11.6016C21.5771 11.4829 21.653 11.3837 21.7593 11.3225C21.8655 11.261 21.9893 11.2448 22.1081 11.2767C22.2788 11.3225 22.3631 11.449 22.3982 11.5202C22.4604 11.6467 22.5741 11.7401 22.7101 11.7766C22.8461 11.813 22.9912 11.789 23.1081 11.7106C23.1741 11.6663 23.3105 11.599 23.4812 11.6447C23.5999 11.6764 23.699 11.7525 23.7605 11.8588C23.8217 11.9651 23.8379 12.0889 23.8062 12.2076C23.7744 12.3263 23.6985 12.4253 23.5922 12.4867C23.4858 12.548 23.3618 12.5642 23.2436 12.5325Z" fill="black"/>
<path d="M4.47544 13.1464C4.42108 12.8821 4.16264 12.7121 3.89866 12.7667C3.63468 12.821 3.46474 13.0794 3.5191 13.3436L4.74915 19.3099C4.79664 19.541 4.99996 19.6997 5.22675 19.6997C5.25955 19.6997 5.29274 19.6965 5.32593 19.6896C5.5901 19.6353 5.76004 19.3769 5.70549 19.1127L4.47544 13.1464Z" fill="black"/>
<path d="M3.94801 11.676C4.0388 11.5851 4.09106 11.4592 4.09106 11.3306C4.09106 11.2022 4.0388 11.0767 3.94801 10.9853C3.85722 10.8944 3.73115 10.8422 3.60278 10.8422C3.47442 10.8422 3.34834 10.8944 3.25755 10.9853C3.16676 11.0763 3.1145 11.2022 3.1145 11.3306C3.1145 11.4596 3.16676 11.5851 3.25755 11.676C3.34834 11.7668 3.47442 11.8191 3.60278 11.8191C3.73115 11.8191 3.85722 11.7668 3.94801 11.676Z" fill="black"/>
</g>
<defs>
<clipPath id="clip0">
<rect y="0.0710449" width="25" height="25.0085" fill="white"/>
</clipPath>
</defs>
</svg>
