<svg width="25" height="26" viewBox="0 0 25 26" fill="none" xmlns="http://www.w3.org/2000/svg">
<g clip-path="url(#clip0)">
<path d="M12.5238 14.0741C10.2173 14.0741 8.34064 15.9514 8.34064 18.2587C8.34064 20.566 10.2173 22.4433 12.5238 22.4433C14.8306 22.4433 16.707 20.566 16.707 18.2587C16.707 15.9514 14.8306 14.0741 12.5238 14.0741ZM12.5238 21.7106C10.6211 21.7106 9.07306 20.1621 9.07306 18.2587C9.07306 16.3553 10.6211 14.8068 12.5238 14.8068C14.4268 14.8068 15.9748 16.3553 15.9748 18.2587C15.9748 20.1621 14.4268 21.7106 12.5238 21.7106Z" fill="black"/>
<path d="M21.2871 8.77425H21.2585L22.0943 4.72779C22.1559 4.42976 22.0949 4.12315 21.9269 3.88675C21.7695 3.66504 21.5353 3.52347 21.2677 3.48798L19.8574 3.30119C19.7513 3.28707 19.6457 3.29127 19.5434 3.31054L19.5558 3.20541C19.5917 2.90032 19.5039 2.596 19.3149 2.37085C19.1379 2.15983 18.8907 2.03505 18.6187 2.01959L17.5745 1.95987C17.6088 1.66318 17.5291 1.36477 17.3528 1.13658C17.1833 0.917158 16.9416 0.779592 16.6725 0.749445L15.2174 0.586122C14.9484 0.555785 14.6812 0.63592 14.4649 0.811455C14.2318 1.00054 14.0812 1.28597 14.0512 1.59449L13.9189 2.9671C13.8838 2.91501 13.8443 2.86598 13.8002 2.82095C13.6068 2.62309 13.3512 2.51414 13.0804 2.51414H11.6359C11.4439 2.51414 11.2602 2.56986 11.1004 2.67232L10.9964 1.59449C10.9667 1.28597 10.8158 1.00054 10.5827 0.811455C10.3666 0.63592 10.0996 0.555976 9.83026 0.586122L8.37514 0.749445C8.10602 0.779592 7.86435 0.917158 7.69479 1.13658C7.51855 1.36477 7.43882 1.66318 7.47316 1.95987L6.42888 2.01959C6.15709 2.03505 5.9097 2.15983 5.7327 2.37085C5.54368 2.596 5.45595 2.90032 5.4918 3.20541L5.5042 3.31073C5.40197 3.29146 5.29649 3.28707 5.19025 3.30119L3.77996 3.48798C3.51236 3.52347 3.27833 3.66504 3.12078 3.88675C2.95274 4.12315 2.89171 4.42976 2.95331 4.72779L3.78911 8.77425H3.7605C3.51503 8.77425 3.28348 8.88186 3.12517 9.0698C2.96686 9.25774 2.9001 9.50444 2.94187 9.74637L5.55303 24.8985C5.62208 25.2982 5.96635 25.5882 6.37185 25.5882H18.676C19.0815 25.5882 19.4257 25.2982 19.4946 24.8985L22.106 9.74637C22.1477 9.50444 22.0808 9.25774 21.9227 9.0698C21.7643 8.88186 21.5328 8.77425 21.2871 8.77425ZM19.4366 4.22046C19.5062 4.09071 19.6371 4.01058 19.7614 4.02756L21.1717 4.21416C21.2534 4.22504 21.3028 4.27274 21.3299 4.31109C21.3804 4.38225 21.3978 4.48013 21.3772 4.57954L20.5108 8.77406H19.9754L20.3319 5.95749C20.368 5.67377 20.2867 5.38929 20.1091 5.17712C19.9363 4.9703 19.6918 4.84876 19.421 4.83483L19.3645 4.83197L19.4366 4.22046ZM18.9371 5.54365L19.3836 5.56654C19.4669 5.57093 19.5188 5.61291 19.5476 5.64725C19.5955 5.70449 19.6159 5.78195 19.6054 5.86533L19.2371 8.77425H17.5262L17.7242 7.61763C17.7652 7.37818 17.7171 7.13815 17.5909 6.93362L17.678 5.80428C17.6864 5.69457 17.7469 5.59802 17.8306 5.54307C17.8808 5.51026 17.9394 5.49232 18 5.49576L18.9365 5.54365H18.9371ZM17.1188 2.6685C17.1236 2.66869 17.1283 2.66831 17.1333 2.66869H17.1335L18.5772 2.75093C18.6645 2.75608 18.7217 2.8032 18.7542 2.84175C18.8139 2.9131 18.841 3.01442 18.8286 3.11974L18.7162 4.0764C18.7162 4.0764 18.716 4.0766 18.716 4.07679L18.6317 4.79438L18.0374 4.76404C17.4801 4.73542 16.9918 5.17674 16.9477 5.7478L16.8916 6.47341L16.5491 6.41941L16.7841 3.03064C16.7978 2.82953 16.9504 2.66716 17.1188 2.6685ZM17.0023 7.49399L16.7768 8.81146C16.538 8.88549 16.3423 9.06522 16.2483 9.31021C15.9622 10.0555 15.464 10.6924 14.8075 11.1522C14.7371 11.2014 14.6654 11.2476 14.5925 11.2918L15.1813 7.20684C15.1911 7.13872 15.2269 7.07881 15.2822 7.03817C15.3375 6.99715 15.4052 6.98074 15.4731 6.99143L16.0978 7.08988C16.098 7.08988 16.0984 7.08988 16.0988 7.09007L16.7907 7.19921C16.8586 7.20989 16.9182 7.24653 16.9582 7.30243C16.9983 7.35833 17.0139 7.42626 17.0023 7.49399ZM13.9629 10.1404L14.7802 1.6649C14.7915 1.55042 14.8445 1.44682 14.9263 1.38042C14.9706 1.34455 15.0432 1.30372 15.1357 1.31421L16.591 1.47734C16.6813 1.48746 16.74 1.54126 16.7732 1.58438C16.8356 1.66509 16.8621 1.77594 16.8457 1.88851L16.8329 1.97666C16.8268 1.97857 16.8209 1.98086 16.8148 1.98277C16.8071 1.98525 16.7995 1.98792 16.7921 1.99059C16.7692 1.99841 16.7465 2.007 16.7244 2.01654C16.7186 2.01883 16.7129 2.02131 16.7072 2.02398C16.6639 2.04325 16.6221 2.06538 16.5819 2.09038C16.5783 2.09248 16.5748 2.09477 16.5712 2.09706C16.5462 2.11308 16.5216 2.13007 16.498 2.14819C16.4959 2.14972 16.4938 2.15105 16.4917 2.15277C16.4789 2.1625 16.4665 2.17261 16.4543 2.18292C16.4516 2.18521 16.4489 2.1875 16.4463 2.18979C16.4253 2.20791 16.4051 2.22661 16.3854 2.24626C16.3805 2.25122 16.3757 2.25599 16.3707 2.26114C16.3608 2.27145 16.3507 2.28194 16.3412 2.29282C16.3307 2.30465 16.3204 2.31667 16.3105 2.32888C16.3011 2.34033 16.2922 2.35177 16.2832 2.36341C16.2765 2.37238 16.27 2.38154 16.2634 2.3907C16.255 2.40253 16.2466 2.41474 16.2384 2.42714C16.2292 2.44126 16.2203 2.45557 16.2117 2.47007C16.2063 2.47904 16.2012 2.488 16.1962 2.49716C16.1871 2.51357 16.1783 2.53017 16.1699 2.54715C16.1661 2.55517 16.1621 2.56337 16.1585 2.57157C16.1504 2.58875 16.1428 2.6063 16.1356 2.62404C16.1327 2.63129 16.1298 2.63835 16.127 2.6456C16.1186 2.66774 16.1108 2.69025 16.1035 2.71296C16.1018 2.71849 16.1003 2.72421 16.0988 2.72994C16.0925 2.75073 16.0869 2.77191 16.0818 2.79347C16.0808 2.79805 16.0795 2.80263 16.0785 2.8074C16.073 2.83221 16.0684 2.85739 16.0644 2.88277C16.0637 2.88849 16.0627 2.89441 16.0619 2.90013C16.0583 2.92646 16.0553 2.95317 16.0534 2.98007L15.823 6.30493L15.587 6.26792C15.3242 6.22613 15.0614 6.29062 14.8473 6.44861C14.6332 6.60678 14.4943 6.83898 14.4563 7.10247L13.9526 10.5985L13.9629 10.1404ZM11.4406 3.33286C11.4788 3.29356 11.5436 3.24681 11.6359 3.24681H13.0804C13.1727 3.24681 13.2379 3.29375 13.2765 3.33324C13.344 3.40231 13.3814 3.50191 13.3791 3.60647L13.2349 9.94289L13.092 7.2057C13.0771 6.92026 12.9577 6.65562 12.7559 6.46044C12.5467 6.25819 12.2764 6.15497 11.9938 6.17004L11.4057 6.20114L11.3933 5.72033L11.3394 3.60551C11.3367 3.50096 11.3737 3.40155 11.4406 3.33286ZM12.0325 6.90156C12.1359 6.89679 12.2114 6.95289 12.2469 6.98723C12.3152 7.05306 12.3556 7.14426 12.3607 7.24385L12.602 11.8692C12.5761 11.8696 12.5499 11.8705 12.5238 11.8705C11.9058 11.8705 11.3064 11.7303 10.7618 11.4613L10.3458 7.33219C10.3357 7.2326 10.3636 7.13624 10.4221 7.06794C10.4555 7.02921 10.5137 6.98189 10.6022 6.97712L12.0325 6.90156ZM8.27443 1.58438C8.30781 1.54107 8.36656 1.48746 8.45678 1.47734L9.91189 1.31421C10.0048 1.30372 10.0771 1.34455 10.1215 1.38042C10.2031 1.44682 10.2564 1.55042 10.2674 1.6649L10.6615 5.75181L10.6741 6.23987L10.5634 6.2456C10.2924 6.2601 10.0448 6.38278 9.86612 6.59113C9.67786 6.81093 9.58707 7.10762 9.61702 7.40565L9.81843 9.40446L9.3641 8.31538L8.99427 2.98007C8.99236 2.95317 8.98931 2.92665 8.98568 2.90032C8.98492 2.89441 8.98397 2.88868 8.9832 2.88277C8.9792 2.85739 8.97462 2.83221 8.96909 2.80721C8.96814 2.80301 8.96699 2.79862 8.96604 2.79443C8.96089 2.77229 8.95517 2.75073 8.94887 2.72917C8.94735 2.72421 8.94582 2.71887 8.94429 2.71391C8.93705 2.69044 8.92904 2.66755 8.92026 2.64484C8.91797 2.63874 8.91549 2.63263 8.91301 2.62652C8.905 2.60649 8.89642 2.58684 8.88746 2.56757C8.88574 2.56375 8.88421 2.55994 8.88231 2.5565C8.8722 2.53513 8.86113 2.51453 8.84969 2.4943C8.84607 2.48762 8.84225 2.48094 8.83844 2.47427C8.8268 2.45461 8.81479 2.43515 8.8022 2.41645C8.79876 2.4113 8.79514 2.40634 8.79152 2.40119C8.78103 2.38593 8.77015 2.37104 8.7589 2.35654C8.75432 2.35044 8.74955 2.34433 8.74498 2.33842C8.73105 2.32106 8.71675 2.30427 8.70187 2.28786C8.69691 2.28232 8.69176 2.27698 8.68661 2.27145C8.67364 2.25771 8.66067 2.24454 8.64713 2.23176C8.64312 2.22775 8.63912 2.22375 8.63492 2.21974C8.61833 2.20429 8.60135 2.18959 8.58381 2.17509C8.57847 2.17071 8.57312 2.16651 8.56759 2.16212C8.54947 2.14762 8.53078 2.13369 8.5119 2.12033C8.50942 2.11881 8.50694 2.11728 8.50465 2.11576C8.48615 2.10316 8.46727 2.09114 8.448 2.07989C8.444 2.07741 8.43999 2.07512 8.43599 2.07283C8.41481 2.06042 8.39307 2.04898 8.37095 2.03829C8.36847 2.03696 8.3658 2.03581 8.36332 2.03467C8.34024 2.02379 8.31697 2.01349 8.29313 2.00433C8.29313 2.00414 8.29294 2.00414 8.29274 2.00414C8.26814 1.9946 8.24296 1.98601 8.2174 1.97838C8.21645 1.97819 8.21569 1.97781 8.21492 1.97743L8.20195 1.88851C8.18574 1.77594 8.21206 1.66509 8.27443 1.58438ZM6.29365 2.84175C6.32608 2.8032 6.38311 2.75589 6.47065 2.75112L7.91509 2.6685H7.91604C7.91776 2.6685 7.91967 2.66869 7.92138 2.6685C8.09305 2.66335 8.24964 2.82648 8.26375 3.03064L8.48386 6.20515L8.30209 5.76936C8.19204 5.50587 7.99062 5.29675 7.73465 5.18094C7.70299 5.16644 7.67076 5.15404 7.63833 5.14278C7.63643 5.14221 7.63452 5.14144 7.63261 5.14068C7.60133 5.13019 7.57005 5.1216 7.53839 5.11397C7.53534 5.1134 7.53209 5.11244 7.52904 5.11168C7.49814 5.10462 7.46724 5.09947 7.43615 5.09527C7.43234 5.0947 7.42833 5.09413 7.42452 5.09374C7.394 5.09012 7.36329 5.08783 7.33278 5.08707C7.32839 5.08707 7.32419 5.08687 7.32 5.08668C7.31485 5.08668 7.3097 5.0863 7.30474 5.0863C7.28853 5.0863 7.2725 5.08783 7.25629 5.08859C7.24256 5.08935 7.22863 5.08955 7.2149 5.09069C7.1943 5.0926 7.17389 5.09603 7.15329 5.09909C7.14052 5.10118 7.12755 5.10233 7.11477 5.10481C7.09245 5.10939 7.07032 5.1153 7.04801 5.12122C7.03752 5.12408 7.02684 5.12618 7.01616 5.12923C6.98354 5.13915 6.95131 5.1506 6.91945 5.16396L6.48115 5.34732L6.41496 4.78503L6.21908 3.11993C6.20687 3.01442 6.23395 2.9131 6.29365 2.84175ZM5.88052 6.39251L6.09739 6.30169L6.3154 6.21068H6.31559L7.20212 5.83977C7.29787 5.79989 7.38771 5.82794 7.43272 5.84816C7.51912 5.88747 7.58779 5.95959 7.62632 6.05155L9.44993 10.4229C9.17585 10.0917 8.95593 9.71737 8.79972 9.31021C8.67479 8.98451 8.36999 8.77406 8.02324 8.77406H6.69019L5.75864 6.81303C5.71573 6.72259 5.70943 6.62261 5.74167 6.53847C5.74834 6.52054 5.75826 6.50031 5.77199 6.48028C5.79507 6.44689 5.8294 6.41388 5.88052 6.39251ZM3.67067 4.57954C3.65007 4.48013 3.66723 4.38225 3.71778 4.31109C3.74505 4.27293 3.79445 4.22504 3.87609 4.21435L5.28638 4.02756C5.41036 4.01134 5.54139 4.0909 5.6112 4.22065L5.68864 4.87833L5.77829 5.64115L5.59804 5.7167C5.34761 5.82145 5.15573 6.02026 5.05769 6.2767C4.95412 6.54706 4.96862 6.85711 5.09717 7.12747L5.87938 8.77425H4.53698L3.67067 4.57954ZM21.3842 9.62197L20.2276 16.3335H17.8325C17.6304 16.3335 17.4663 16.4974 17.4663 16.6998C17.4663 16.9021 17.6304 17.0662 17.8325 17.0662H20.1013L19.7204 19.276H17.8808C17.6784 19.276 17.5146 19.4399 17.5146 19.6423C17.5146 19.8448 17.6784 20.0087 17.8808 20.0087H19.5942L18.7731 24.7739C18.7649 24.8212 18.724 24.8555 18.676 24.8555H6.37185C6.32379 24.8555 6.28297 24.8212 6.27477 24.7739L5.45366 20.0087H7.16703C7.36921 20.0087 7.53324 19.8448 7.53324 19.6423C7.53324 19.4399 7.36921 19.276 7.16703 19.276H5.32739L4.94649 17.0662H7.22654C7.42872 17.0662 7.59275 16.9021 7.59275 16.6998C7.59275 16.4974 7.42872 16.3335 7.22654 16.3335H4.82023L3.66361 9.62197C3.65712 9.58457 3.67181 9.55786 3.68535 9.54184C3.6987 9.52581 3.72274 9.50673 3.76069 9.50673H8.02324C8.06424 9.50673 8.10048 9.53268 8.11593 9.57275C8.45449 10.4548 9.04386 11.2085 9.82053 11.7522C10.6153 12.309 11.5503 12.6032 12.524 12.6032C12.574 12.6032 12.6245 12.6021 12.6756 12.6003C12.6995 12.5996 12.7235 12.5986 12.7475 12.5975C12.7685 12.5963 12.7897 12.5952 12.8109 12.5939C13.0337 12.5805 13.2536 12.5519 13.4699 12.5078C13.4706 12.5076 13.4712 12.5076 13.4718 12.5074C14.0995 12.3796 14.695 12.1251 15.2273 11.7522C16.004 11.2085 16.5933 10.4548 16.9319 9.57275C16.9473 9.53268 16.9838 9.50673 17.0246 9.50673H21.2873C21.3251 9.50673 21.3491 9.52581 21.3625 9.54165C21.376 9.55786 21.3905 9.58457 21.3842 9.62197Z" fill="black"/>
</g>
<defs>
<clipPath id="clip0">
<rect y="0.579834" width="25" height="25.0084" fill="white"/>
</clipPath>
</defs>
</svg>
