<svg width="30" height="31" viewBox="0 0 30 31" fill="none" xmlns="http://www.w3.org/2000/svg">
<g clip-path="url(#clip0)">
<path d="M23.2656 0.922046C23.2257 0.681618 22.9989 0.518963 22.7579 0.558881L19.0345 1.1783C18.7519 1.22533 18.5219 1.42401 18.4341 1.69655L17.5787 4.34951H8.0952C7.723 4.34951 7.3923 4.57182 7.25241 4.91571C7.04349 5.42937 6.80292 6.37388 6.8442 7.95524C6.89512 9.9016 7.35997 12.2761 8.22592 15.013C9.91378 20.3469 9.44503 25.6129 9.04852 28.1486C9.03683 28.2234 9.0249 28.2977 9.01275 28.3716C9.00908 28.3941 9.00541 28.4168 9.00174 28.4386C8.9827 28.5519 8.96321 28.6643 8.94326 28.7752C8.86024 29.2333 8.98385 29.7013 9.28244 30.059C9.44916 30.2586 9.65969 30.4109 9.89406 30.5063C10.08 30.5823 10.2812 30.6229 10.4878 30.6229H18.1233C18.3196 30.6229 18.5109 30.5859 18.6889 30.5173C18.9345 30.4226 19.1553 30.2666 19.3287 30.0587C19.627 29.7013 19.7509 29.2333 19.6679 28.7752C19.6495 28.6742 19.6319 28.5717 19.6144 28.4687C19.6114 28.4508 19.6082 28.4331 19.6053 28.4152C19.5445 28.0516 19.4892 27.6769 19.4404 27.297C19.4404 27.2968 19.4404 27.2968 19.4404 27.2966C19.3711 26.7565 19.3147 26.2064 19.2725 25.6496C19.2542 25.4064 19.0416 25.2247 18.7992 25.2428C18.5561 25.2612 18.374 25.4734 18.3926 25.7164C18.4304 26.2146 18.4795 26.7074 18.5384 27.1933C18.4203 27.2833 18.2756 27.3335 18.1233 27.3335H10.4878C10.3362 27.3335 10.1924 27.2837 10.0745 27.1947C10.4502 24.1403 10.5763 19.5157 9.06733 14.7466C8.02135 11.4412 7.72965 9.15485 7.72552 7.63864H8.70109L7.9349 8.96627C7.77024 9.25189 7.86816 9.61827 8.15368 9.78322L10.0645 10.8869C10.1582 10.9411 10.261 10.9668 10.3624 10.9668C10.569 10.9668 10.7703 10.8596 10.8811 10.6678L11.9842 8.75659C12.1491 8.47096 12.0509 8.10436 11.7654 7.93941L11.2444 7.63864H14.0791C14.3229 7.63864 14.5203 7.44112 14.5203 7.19725C14.5203 6.95338 14.3229 6.75585 14.0791 6.75585H7.75923C7.82574 5.95726 7.97572 5.47962 8.06974 5.24836C8.07364 5.2385 8.08373 5.23231 8.0952 5.23231H17.2938L16.8026 6.75585H16.1321C15.8885 6.75585 15.6908 6.95338 15.6908 7.19725C15.6908 7.44112 15.8885 7.63864 16.1321 7.63864H20.889C20.8886 7.73362 20.8874 7.83135 20.8847 7.9323C20.8361 9.79584 20.385 12.0886 19.5438 14.7466C18.6824 17.4686 18.2641 20.4469 18.2999 23.5993C18.3029 23.8411 18.4999 24.0354 18.7411 24.0354H18.7462C18.99 24.0327 19.1851 23.8329 19.1824 23.5892C19.1475 20.5309 19.5521 17.6455 20.385 15.013C21.5468 11.3419 21.8155 8.84675 21.763 7.21721C21.7632 7.21056 21.7642 7.2039 21.7642 7.19725C21.7642 7.17844 21.7626 7.16008 21.7603 7.14196C21.7158 6.00131 21.5135 5.29631 21.3587 4.91571C21.2188 4.57159 20.8879 4.34951 20.5159 4.34951H18.5058L19.2514 2.03723L22.9028 1.42974C23.1431 1.38982 23.3055 1.16247 23.2656 0.922046ZM9.81173 28.9316C9.85668 28.6827 9.90232 28.4115 9.94681 28.1209C10.1177 28.1835 10.3002 28.2163 10.4878 28.2163H18.1233C18.3109 28.2163 18.4937 28.1833 18.6648 28.1206C18.7063 28.3943 18.7512 28.6648 18.7994 28.9316C18.8356 29.1321 18.7815 29.3368 18.651 29.4932C18.5854 29.5717 18.5047 29.6334 18.4146 29.6756C18.3247 29.7176 18.2254 29.7401 18.1233 29.7401H10.4878C10.4112 29.7401 10.3362 29.7275 10.2653 29.7034C10.1477 29.6632 10.042 29.5912 9.96011 29.4932C9.82939 29.3368 9.77527 29.1321 9.81173 28.9316ZM9.65991 7.7428L11.0776 8.56158L10.2592 9.98006L8.84144 9.16128L9.65991 7.7428ZM20.5159 5.23231C20.5274 5.23231 20.5375 5.2385 20.5414 5.24836C20.643 5.49797 20.7895 5.9763 20.8551 6.75585H17.7298L18.221 5.23231H20.5159Z" fill="black"/>
<path d="M13.7222 13.2847C13.8396 13.382 13.982 13.4292 14.1238 13.4292C14.3052 13.4292 14.4854 13.3517 14.61 13.2012L16.3114 11.1465C16.4189 11.0167 16.4696 10.8529 16.4538 10.6852C16.4379 10.5172 16.3579 10.3658 16.2281 10.2582L14.174 8.5562C13.9064 8.33413 13.508 8.37175 13.2863 8.63948L11.5849 10.6944C11.4773 10.824 11.4268 10.9878 11.4427 11.1557C11.4583 11.3234 11.5385 11.4751 11.6681 11.5824L13.7222 13.2847ZM13.8052 9.39678L15.4711 10.7774L14.0912 12.4441L12.4251 11.0635L13.8052 9.39678Z" fill="black"/>
<path d="M14.0329 16.9549L16.3518 18.6907C16.4649 18.7754 16.5993 18.8199 16.738 18.8199C16.769 18.8199 16.8002 18.8176 16.8316 18.813C17.0024 18.7884 17.1538 18.6987 17.2572 18.5604L18.9926 16.2403C19.096 16.102 19.1393 15.9315 19.1148 15.7606C19.09 15.5895 19.0004 15.438 18.8621 15.3348L16.5429 13.5988C16.2573 13.3852 15.8512 13.4437 15.6377 13.7294L13.9024 16.0492C13.6889 16.3348 13.7473 16.7411 14.0329 16.9549ZM16.2032 14.447L18.145 15.9003L16.6919 17.8428L14.7502 16.3894L16.2032 14.447Z" fill="black"/>
<path d="M17.5327 10.9606C17.5402 10.9606 17.5478 10.9603 17.5554 10.9601L19.3398 10.8894C19.6528 10.8771 19.8973 10.6125 19.8849 10.2994L19.8145 8.51385C19.8019 8.20115 19.5359 7.95706 19.2247 7.96899L17.4403 8.03942C17.1272 8.05181 16.8828 8.31655 16.8949 8.62947L16.9655 10.4146C16.9775 10.7201 17.2297 10.9606 17.5327 10.9606ZM18.9451 8.86348L18.9907 10.0197L17.8347 10.0656L17.7891 8.90913L18.9451 8.86348Z" fill="black"/>
<path d="M12.5304 13.383L10.6552 13.5736C10.5025 13.5892 10.3649 13.6631 10.2676 13.7824C10.1706 13.9015 10.1257 14.051 10.1413 14.2041L10.3316 16.0798C10.3472 16.2328 10.4213 16.3704 10.5403 16.4675C10.644 16.5521 10.7708 16.5971 10.9026 16.5971C10.9224 16.5971 10.9421 16.596 10.9618 16.5941L12.837 16.4035C12.99 16.3879 13.1276 16.3138 13.2246 16.1947C13.3216 16.0756 13.3666 15.9258 13.351 15.773L13.1606 13.8971C13.1285 13.5817 12.8458 13.352 12.5304 13.383ZM11.1785 15.6847L11.0501 14.4209L12.3137 14.2924L12.4421 15.5565L11.1785 15.6847Z" fill="black"/>
</g>
<defs>
<clipPath id="clip0">
<rect y="0.552979" width="30" height="30.0698" fill="white"/>
</clipPath>
</defs>
</svg>
