<svg width="25" height="26" viewBox="0 0 25 26" fill="none" xmlns="http://www.w3.org/2000/svg">
<g clip-path="url(#clip0)">
<path d="M24.582 16.582H0.417016C0.187036 16.582 0.000366211 16.7683 0.000366211 16.9988C0.000366211 21.8247 3.92511 25.7512 8.74976 25.7512H16.2493C21.0735 25.7512 24.9987 21.8247 24.9987 16.9988C24.9987 16.7683 24.8124 16.582 24.582 16.582ZM16.2493 24.9176H8.74976C4.52462 24.9176 1.06194 21.5892 0.844456 17.4156H24.1545C23.9371 21.5892 20.4744 24.9176 16.2493 24.9176Z" fill="black"/>
<path d="M21.2511 6.58198C21.2511 6.55155 21.2506 6.52112 21.2477 6.47486C21.1836 5.78386 20.7086 5.21619 20.0816 5.00323L20.5532 4.53144C21.3711 3.73 21.4532 2.44798 20.7373 1.54274C19.9707 0.610836 18.5891 0.478272 17.6579 1.24474C17.605 1.2885 17.5538 1.33476 17.5025 1.38605L16.9901 1.90619C16.7751 1.28225 16.2064 0.810464 15.5056 0.745452C14.5828 0.695044 13.8016 1.40353 13.752 2.32127C13.7503 2.3517 13.7499 2.38213 13.7499 2.41212V3.05106C13.5049 2.90892 13.2212 2.82725 12.9183 2.82681C12.8883 2.82681 12.8575 2.82764 12.8112 2.83013C11.9205 2.91307 11.2351 3.67871 11.2501 4.56641V5.13325C11.0001 4.98862 10.7151 4.91111 10.4185 4.91067C10.3885 4.91067 10.3581 4.9115 10.3119 4.91399C9.42066 4.99693 8.73531 5.76256 8.7503 6.65031V12.8311C8.7503 13.0616 8.93697 13.2479 9.16695 13.2479H16.2498C17.1689 13.2479 17.9163 12.5002 17.9159 11.5817C17.9159 11.2782 17.8347 10.9936 17.6922 10.7481H18.2551C19.15 10.7727 19.9154 10.0771 19.9991 9.16976C20.017 8.83049 19.932 8.50958 19.7712 8.23702C20.1453 8.19536 20.4916 8.02988 20.7616 7.76064C21.0764 7.44638 21.2506 7.02793 21.2511 6.58198ZM20.1732 7.17046C20.0157 7.32715 19.807 7.41346 19.5841 7.41346C19.5836 7.41346 19.5832 7.41346 19.5828 7.41346H18.3329C18.1025 7.41346 17.9162 7.60019 17.9162 7.83025C17.9162 8.06031 18.1025 8.24704 18.3329 8.24704L18.3787 8.24831C18.8379 8.27288 19.1912 8.66632 19.1679 9.10895C19.1254 9.56823 18.7358 9.92377 18.2621 9.91415H16.2497C16.0193 9.91415 15.8331 10.1009 15.8331 10.3309C15.8331 10.561 16.0193 10.7477 16.2497 10.7477C16.7093 10.7477 17.083 11.1216 17.083 11.5813C17.083 12.041 16.7093 12.4149 16.2497 12.4149H9.5835V6.64323C9.57559 6.18184 9.92974 5.78718 10.3726 5.74547L10.418 5.7442C10.8768 5.74459 11.2496 6.11805 11.2501 6.57651V6.57944C11.2501 6.8095 11.4363 6.99623 11.6663 6.99623C11.6667 6.99623 11.6667 6.99623 11.6667 6.99623C11.8967 6.99623 12.0829 6.80994 12.0834 6.57988V6.57949V4.55933C12.0754 4.09794 12.4296 3.70328 12.8725 3.66157L12.9175 3.6603C13.3766 3.66113 13.7495 4.03454 13.75 4.49344V4.49593C13.75 4.72599 13.9362 4.91272 14.1662 4.91272C14.1666 4.91272 14.1666 4.91272 14.1666 4.91272C14.3966 4.91272 14.5828 4.72642 14.5832 4.49637V4.49593V2.41207L14.5845 2.36582C14.6087 1.90692 14.9928 1.55353 15.4445 1.57644C15.9044 1.61938 16.2581 2.01404 16.2494 2.48334V2.82926C16.2494 2.99806 16.3515 3.1506 16.5081 3.21479C16.6636 3.27897 16.8444 3.24228 16.9627 3.12144L18.093 1.97404C18.1238 1.94361 18.1555 1.91484 18.1884 1.88778C18.765 1.4135 19.6196 1.496 20.0895 2.06616C20.5345 2.62963 20.4832 3.43317 19.9675 3.93876L18.8717 5.03488C18.7526 5.15406 18.7167 5.33327 18.7813 5.48918C18.8454 5.64465 18.9979 5.74635 19.1662 5.74635H19.512C19.5208 5.74635 19.527 5.74635 19.5341 5.74635C19.9891 5.74635 20.3757 6.09729 20.4165 6.53572L20.4178 6.58159C20.4173 6.80412 20.3307 7.01332 20.1732 7.17046Z" fill="black"/>
<path d="M18.0388 3.36668L6.37317 15.0363L6.96236 15.6256L18.628 3.95607L18.0388 3.36668Z" fill="black"/>
<path d="M16.2491 4.08118H15.4158V6.16508H16.2491V4.08118Z" fill="black"/>
<path d="M13.7492 6.16516H12.9159V8.66585H13.7492V6.16516Z" fill="black"/>
<path d="M11.2492 8.24487H10.4159V11.1623H11.2492V8.24487Z" fill="black"/>
<path d="M17.9155 5.74805H15.8323V6.58158H17.9155V5.74805Z" fill="black"/>
<path d="M15.8324 8.24487H13.3325V9.07841H15.8324V8.24487Z" fill="black"/>
<path d="M13.7489 10.7455H10.8325V11.5791H13.7489V10.7455Z" fill="black"/>
<path d="M7.7774 2.67106C7.77701 2.67023 7.77613 2.6694 7.77574 2.66856C7.18785 1.7879 5.99293 1.54866 5.113 2.13675C5.08551 2.15467 5.05841 2.17382 5.0276 2.19678L4.8776 2.31097L4.73346 2.20718C3.97101 1.49576 2.77233 1.52453 2.04655 2.27805C1.69118 2.64649 1.50036 3.13161 1.50993 3.64384C1.5195 4.15608 1.72741 4.63368 2.09533 4.98878C2.20241 5.09213 2.32155 5.18298 2.44987 5.25884L2.8007 5.5331V5.7465C2.8007 6.89557 3.73522 7.8304 4.88389 7.8304C6.03257 7.8304 6.96709 6.89513 6.96665 5.74611V5.53271L7.3354 5.24472C8.13321 4.6391 8.32696 3.5084 7.7774 2.67106ZM6.82705 4.58449L6.29376 5.00128C6.19293 5.08007 6.13375 5.20135 6.13375 5.32971V5.7465C6.13375 6.43584 5.57296 6.99682 4.88385 6.99682C4.19474 6.99682 3.63395 6.43584 3.63395 5.7465V5.32971C3.63395 5.20135 3.57521 5.08007 3.47394 5.00128L2.94064 4.58449C2.92482 4.57199 2.90773 4.56075 2.89025 4.55074C2.81193 4.50614 2.73942 4.45198 2.67443 4.38901C2.46613 4.18812 2.3486 3.91806 2.34318 3.6288C2.33776 3.33954 2.44567 3.06533 2.6465 2.85691C2.85856 2.63686 3.1423 2.52599 3.42643 2.52599C3.69723 2.52599 3.96847 2.62641 4.17848 2.82941C4.19264 2.84274 4.20763 2.85569 4.22389 2.86731L4.64054 3.16741C4.78888 3.27453 4.9901 3.27204 5.13595 3.16116L5.5751 2.83068C5.81675 2.66896 6.1063 2.6123 6.39131 2.66856C6.67544 2.72522 6.92085 2.88905 7.08208 3.12995C7.39121 3.60257 7.2812 4.2394 6.82705 4.58449Z" fill="black"/>
<path d="M9.99944 1.15967H9.16614V1.9932H9.99944V1.15967Z" fill="black"/>
<path d="M12.4992 14.4965H11.666V15.33H12.4992V14.4965Z" fill="black"/>
<path d="M22.4993 3.24548V4.07906C22.9589 4.07906 23.3326 4.45292 23.3326 4.9126C23.3326 5.37227 22.9589 5.74618 22.4993 5.74618V6.57971C23.4184 6.57971 24.1659 5.832 24.1659 4.9126C24.1659 3.9932 23.4184 3.24548 22.4993 3.24548Z" fill="black"/>
<path d="M1.66656 6.99878H0.833313V7.83236H1.66656V6.99878Z" fill="black"/>
<path d="M0.833617 5.33167H0.000366211V6.16525H0.833617V5.33167Z" fill="black"/>
<path d="M16.2498 14.0813C15.3307 14.0813 14.5833 14.829 14.5833 15.7484H15.4166C15.4166 15.2887 15.7903 14.9148 16.2498 14.9148C16.7094 14.9148 17.0831 15.2887 17.0831 15.7484H17.9164C17.9164 14.829 17.1689 14.0813 16.2498 14.0813Z" fill="black"/>
<path d="M5.00008 10.3303H4.94759C4.76175 9.61216 4.10887 9.07996 3.33353 9.07996C2.55819 9.07996 1.90487 9.61216 1.71947 10.3303H1.66698C0.747887 10.3303 0.000427246 11.078 0.000427246 11.9974C0.000427246 12.9168 0.747887 13.6645 1.66698 13.6645H5.00008C5.91917 13.6645 6.66663 12.9168 6.66663 11.9974C6.66663 11.078 5.91917 10.3303 5.00008 10.3303ZM5.00008 12.8314H1.66693C1.20736 12.8314 0.833629 12.4575 0.833629 11.9978C0.833629 11.5381 1.20736 11.1642 1.66693 11.1642H2.08358C2.31356 11.1642 2.50023 10.9775 2.50023 10.7475C2.50023 10.2877 2.87396 9.91393 3.33353 9.91393C3.7931 9.91393 4.16683 10.2878 4.16683 10.7475C4.16683 10.9775 4.3535 11.1642 4.58348 11.1642H5.00013C5.4597 11.1642 5.83342 11.5381 5.83342 11.9978C5.83333 12.4575 5.4596 12.8314 5.00008 12.8314Z" fill="black"/>
<path d="M4.16712 12.8312H2.50057C2.27059 12.8312 2.08392 13.0179 2.08392 13.248V14.9151C2.08392 15.1456 2.27059 15.3319 2.50057 15.3319H4.16712C4.3971 15.3319 4.58377 15.1456 4.58377 14.9151V13.248C4.58377 13.0179 4.3971 12.8312 4.16712 12.8312ZM3.75047 14.4983H2.91722V13.6648H3.75052V14.4983H3.75047Z" fill="black"/>
<path d="M22.0827 11.5807C21.3936 11.5807 20.8328 12.1417 20.8328 12.831C20.8328 13.5204 21.3936 14.0813 22.0827 14.0813C22.7718 14.0813 23.3326 13.5204 23.3326 12.831C23.3326 12.1417 22.7718 11.5807 22.0827 11.5807ZM22.0827 13.2482C21.8527 13.2482 21.6661 13.0611 21.6661 12.8314C21.6661 12.6017 21.8527 12.4146 22.0827 12.4146C22.3127 12.4146 22.4994 12.6013 22.4994 12.8314C22.4994 13.0615 22.3127 13.2482 22.0827 13.2482Z" fill="black"/>
<path d="M22.0828 9.91345C20.475 9.91345 19.1663 11.2221 19.1663 12.8309C19.1663 14.4396 20.475 15.7483 22.0828 15.7483C23.6906 15.7483 24.9992 14.4396 24.9992 12.8309C24.9992 11.2221 23.6906 9.91345 22.0828 9.91345ZM22.0828 14.9152C20.9341 14.9152 19.9996 13.98 19.9996 12.8313C19.9996 11.6822 20.9341 10.7474 22.0828 10.7474C23.2315 10.7474 24.166 11.6822 24.166 12.8313C24.166 13.9803 23.2315 14.9152 22.0828 14.9152Z" fill="black"/>
</g>
<defs>
<clipPath id="clip0">
<rect y="0.742798" width="25" height="25.0084" fill="white"/>
</clipPath>
</defs>
</svg>
