<svg width="30" height="31" viewBox="0 0 30 31" fill="none" xmlns="http://www.w3.org/2000/svg">
<g clip-path="url(#clip0)">
<path d="M21.7563 10.1337C21.4797 9.27643 20.7516 8.71548 19.7256 8.54994C20.0067 8.03822 20.1991 7.25769 19.9487 6.38971C19.526 4.9246 18.1221 4.90559 17.3589 4.89918C17.6811 4.27985 17.9976 3.30173 17.7735 2.32797C17.6194 1.65826 17.122 0.781116 15.6277 0.40631C14.7356 0.182616 13.7937 0.216044 13.3117 0.255883C13.0759 0.275574 12.8856 0.458054 12.8587 0.689761C12.8317 0.924216 12.9716 1.13944 13.1993 1.21316C13.5456 1.3249 13.9831 1.56278 14.0992 2.05986C14.2402 2.66431 14.0393 3.51695 11.2087 4.75631C10.2506 5.17577 9.66416 5.76831 9.46625 6.51724C9.23302 7.39896 9.60156 8.26672 9.96527 8.85331C9.66302 8.93734 9.31879 9.08067 9.00989 9.29749C8.40056 9.72542 8.07628 10.3244 8.07239 11.0298C8.06757 11.9079 8.36019 12.4935 8.70717 12.8793C8.6519 12.9858 8.62025 13.1062 8.62025 13.234V13.8039C8.62025 14.8461 9.32957 15.7258 10.2914 15.9879L10.9188 18.3235C10.9188 18.3238 10.9191 18.3238 10.9191 18.324L12.9704 25.9612C12.9706 25.9614 12.9706 25.9616 12.9706 25.9621L13.8953 29.404C14.0292 29.9022 14.4666 30.2372 14.9832 30.2372C15.5002 30.2372 15.9375 29.9022 16.0712 29.4038L19.6751 15.9879C20.6371 15.7258 21.3465 14.8461 21.3465 13.8039V13.234C21.3465 13.1106 21.3166 12.9943 21.265 12.8908C21.7675 12.3825 22.2025 11.5157 21.7563 10.1337ZM15.2206 29.1762C15.1766 29.3402 15.0401 29.3578 14.9835 29.3578C14.9268 29.3578 14.7901 29.3402 14.7461 29.1762L14.0581 26.6151C14.6092 26.8463 15.169 27.0648 15.7334 27.2674L15.2206 29.1762ZM16.7044 23.6521C16.5739 23.6038 16.4436 23.555 16.3154 23.5058C16.0884 23.4188 15.8336 23.5317 15.7462 23.7583C15.6588 23.985 15.7719 24.2394 15.9992 24.3266C16.156 24.3868 16.3154 24.4464 16.4755 24.5048L15.9625 26.4147C15.2188 26.1457 14.4828 25.8494 13.7671 25.531L13.097 23.0362C13.4142 23.1976 13.7348 23.3538 14.0558 23.5033C14.1161 23.5312 14.1794 23.5445 14.2416 23.5445C14.4076 23.5445 14.5665 23.4504 14.6411 23.2904C14.7438 23.0701 14.6484 22.8084 14.4278 22.706C13.8735 22.4482 13.3224 22.1694 12.7858 21.8777L12.0714 19.2183C13.6735 20.2349 15.3963 21.0896 17.2112 21.7664L16.7044 23.6521ZM17.4401 20.9133C15.3992 20.1449 13.4802 19.1444 11.7268 17.9357L11.225 16.0681H12.3487C14.0432 17.2854 15.921 18.2906 17.9382 19.0596L17.4401 20.9133ZM18.1675 18.2054C16.6629 17.6257 15.2399 16.9095 13.9182 16.0681H18.7417L18.1675 18.2054ZM20.422 12.4597H12.9975C12.7542 12.4597 12.5569 12.6563 12.5569 12.8993C12.5569 13.1422 12.7542 13.3391 12.9975 13.3391H20.4656V13.8039C20.4656 14.5047 19.9411 15.0854 19.2635 15.1758C19.2632 15.176 19.263 15.1758 19.2628 15.176C19.2318 15.1799 19.2011 15.1831 19.171 15.1852C19.1701 15.1852 19.169 15.1854 19.1681 15.1854C19.1376 15.1875 19.1077 15.1884 19.0788 15.1884H10.8881C10.859 15.1884 10.8292 15.1875 10.7987 15.1854C10.7977 15.1854 10.7968 15.1852 10.7957 15.1852C10.7656 15.1831 10.7351 15.1802 10.7042 15.176C10.7037 15.1758 10.7035 15.176 10.7033 15.1758C10.0256 15.0854 9.50111 14.5047 9.50111 13.8039V13.3391H10.934C11.1773 13.3391 11.3745 13.1422 11.3745 12.8993C11.3745 12.6563 11.1773 12.4597 10.934 12.4597H9.54033C9.14725 12.1462 8.9498 11.6675 8.95324 11.0346C8.95875 10.032 10.0948 9.68466 10.492 9.64208C10.5106 9.64025 10.5283 9.63635 10.5464 9.63269C10.7239 9.8502 10.9255 10.0844 11.0828 10.2321C11.1679 10.3118 11.2761 10.3512 11.3844 10.3512C11.5018 10.3512 11.6187 10.3047 11.7054 10.2126C11.8719 10.0354 11.8634 9.75725 11.6859 9.59102C11.4465 9.36641 10.9989 8.79241 10.8406 8.582C10.57 8.19276 10.1361 7.42918 10.318 6.74162C10.4439 6.26493 10.8626 5.86791 11.5626 5.56156C13.3614 4.77394 15.3729 3.64151 14.9571 1.85997C14.8883 1.56622 14.7631 1.32604 14.6092 1.13005C15.5646 1.20996 16.6846 1.5234 16.9151 2.52487C17.1018 3.3363 16.767 4.16651 16.5188 4.60108C16.3487 4.88247 15.7935 5.65383 15.2263 5.91668C15.0057 6.01902 14.9099 6.28049 15.0124 6.50075C15.0869 6.66103 15.2461 6.75536 15.4121 6.75536C15.4742 6.75536 15.5373 6.74231 15.5974 6.71437C16.0599 6.50007 16.4688 6.10191 16.7674 5.74816C16.7796 5.75045 16.7915 5.75366 16.8039 5.75503C16.9637 5.77541 17.1465 5.77678 17.3401 5.77839C18.2296 5.78594 18.8768 5.85142 19.1025 6.63309C19.2914 7.2886 19.108 7.86673 18.9243 8.17697C18.8328 8.30015 18.3271 8.96413 17.6724 9.50058C17.4843 9.65467 17.457 9.93171 17.6114 10.1195C17.6983 10.2255 17.8246 10.2804 17.9519 10.2804C18.0503 10.2804 18.1491 10.2477 18.231 10.1806C18.5587 9.91202 18.8495 9.6201 19.0814 9.36504C19.1194 9.37374 19.1584 9.37923 19.1983 9.38084C19.84 9.40465 20.6592 9.60132 20.9181 10.4034C21.2162 11.3274 21.0541 12.0015 20.422 12.4597Z" fill="black"/>
</g>
<defs>
<clipPath id="clip0">
<rect y="0.22699" width="30" height="30.0101" fill="white"/>
</clipPath>
</defs>
</svg>
