<svg width="30" height="31" viewBox="0 0 30 31" fill="none" xmlns="http://www.w3.org/2000/svg">
<g clip-path="url(#clip0)">
<path d="M21.2439 10.5045L20.9229 9.44761C20.5152 8.24708 19.2117 7.60455 18.0116 8.01244C17.3365 8.24189 16.8063 8.77226 16.5769 9.44761L16.2559 10.5045C15.9858 11.3958 15.9291 12.3382 16.0904 13.2554C16.2376 14.0277 16.7277 14.6911 17.4224 15.0585L17.0629 23.0978C17.0148 23.5465 17.1603 23.9944 17.4629 24.3292C18.1137 25.0413 19.2185 25.0908 19.9304 24.4398C19.9689 24.4046 20.0057 24.3677 20.0409 24.3292C20.3368 24.0039 20.4821 23.5691 20.4409 23.1313L20.0794 15.0575C20.7732 14.69 21.2626 14.0269 21.4094 13.2554C21.5707 12.3382 21.5141 11.3958 21.2439 10.5045ZM20.4244 13.0814C20.3162 13.6362 19.9209 14.0914 19.3869 14.2763C19.1842 14.3525 19.0537 14.5505 19.0634 14.7669L19.4434 23.2103C19.4609 23.3759 19.4063 23.541 19.2934 23.6635C18.9924 23.9616 18.5075 23.9616 18.2064 23.6635C18.0879 23.5312 18.0341 23.3531 18.0594 23.1773L18.4364 14.7669C18.4462 14.5505 18.3156 14.3525 18.1129 14.2763C17.5789 14.0914 17.1837 13.6362 17.0754 13.0814C16.9417 12.3198 16.9888 11.5375 17.2129 10.7976L17.5339 9.74021C17.7823 9.06842 18.5281 8.72524 19.1997 8.9737C19.5547 9.10506 19.8346 9.38509 19.9659 9.74021L20.2869 10.7976C20.5108 11.5376 20.5579 12.3198 20.4244 13.0814Z" fill="black"/>
<path d="M13.5 7.89252C13.2239 7.89252 13 8.11647 13 8.39269V12.6872L11.6465 14.0411C11.5464 14.1409 11.4931 14.2785 11.5 14.4197L11.9375 23.1727C11.9479 23.3615 11.8794 23.5461 11.7485 23.6824C11.4748 23.9586 11.0291 23.9606 10.7529 23.6868C10.7514 23.6853 10.7499 23.6838 10.7485 23.6824C10.6175 23.5461 10.5491 23.3615 10.5595 23.1727L11 14.4197C11.007 14.2786 10.9539 14.141 10.854 14.0411L9.5 12.6872V8.39269C9.5 8.11647 9.27613 7.89252 9 7.89252C8.72388 7.89252 8.5 8.11647 8.5 8.39269V12.8942C8.5 13.0269 8.55275 13.1541 8.6465 13.2478L9.9895 14.5918L9.563 23.1242C9.51763 24.0562 10.2361 24.8486 11.1678 24.894C12.0995 24.9394 12.8916 24.2206 12.937 23.2886C12.9397 23.2339 12.9397 23.179 12.937 23.1243L12.5105 14.5919L13.8535 13.2479C13.9473 13.1541 14 13.027 14 12.8943V8.39275C14 8.11647 13.7761 7.89252 13.5 7.89252Z" fill="black"/>
<path d="M10.5001 7.89252C10.2239 7.89252 10.0001 8.11647 10.0001 8.39269V12.3941C10.0001 12.6703 10.2239 12.8942 10.5001 12.8942C10.7762 12.8942 11.0001 12.6703 11.0001 12.3941V8.39269C11.0001 8.11647 10.7762 7.89252 10.5001 7.89252Z" fill="black"/>
<path d="M11.9999 7.89252C11.7238 7.89252 11.4999 8.11647 11.4999 8.39269V12.3941C11.4999 12.6703 11.7238 12.8942 11.9999 12.8942C12.2761 12.8942 12.4999 12.6703 12.4999 12.3941V8.39269C12.4999 8.11647 12.2761 7.89252 11.9999 7.89252Z" fill="black"/>
<path d="M15 0.389954C6.71575 0.389954 0 7.10799 0 15.3951C0 23.6821 6.71575 30.4002 15 30.4002C23.2843 30.4002 30 23.6821 30 15.3951C29.9906 7.11187 23.2804 0.399332 15 0.389954ZM15 29.3998C7.268 29.3998 1 23.1297 1 15.3951C1 7.66043 7.268 1.39029 15 1.39029C22.732 1.39029 29 7.66043 29 15.3951C28.9912 23.126 22.7283 29.391 15 29.3998Z" fill="black"/>
<path d="M16.6231 24.7839C16.5963 24.509 16.3517 24.3079 16.0768 24.3347C16.0704 24.3354 16.064 24.3361 16.0575 24.337L16.0595 24.3365C15.3556 24.4183 14.6445 24.4183 13.9405 24.3365C13.6662 24.3043 13.4177 24.5007 13.3855 24.7751C13.3533 25.0496 13.5497 25.2981 13.824 25.3303C14.6047 25.4215 15.3933 25.4215 16.174 25.3303C16.4488 25.3036 16.6499 25.0589 16.6231 24.7839Z" fill="black"/>
<path d="M22.65 8.94994C22.4725 8.7383 22.1571 8.71061 21.9456 8.88817C21.9449 8.88873 21.9442 8.88935 21.9435 8.88992C21.7324 9.06798 21.7055 9.38346 21.8835 9.59466C24.8981 13.1746 24.6675 18.4682 21.353 21.7723C21.1573 21.9673 21.1568 22.2841 21.3517 22.4798C21.5466 22.6755 21.8633 22.6761 22.059 22.481C25.7425 18.8102 25.9994 12.9281 22.65 8.94994Z" fill="black"/>
<path d="M11.651 7.00121C11.6504 7.00121 11.6499 7.00116 11.6494 7.00116C11.6486 7.00116 11.6478 7.00121 11.6469 7.00121H11.651Z" fill="black"/>
<path d="M17.3584 5.67123C15.4044 5.20276 13.355 5.32867 11.4729 6.03285C11.2144 6.13007 11.0837 6.41854 11.1809 6.67707C11.2542 6.87195 11.4404 7.00093 11.6485 7.00112C11.7083 7.0008 11.7676 6.98986 11.8234 6.96867C13.5183 6.33464 15.3638 6.22141 17.1234 6.64356C17.3919 6.70846 17.6621 6.54346 17.7269 6.27493C17.7918 6.0064 17.6269 5.73612 17.3584 5.67123Z" fill="black"/>
<path d="M8.62441 21.7474C6.93885 20.0641 5.99416 17.7778 5.99991 15.3952C5.99497 13.4917 6.59772 11.6363 7.72041 10.0994C7.88635 9.87858 7.84191 9.56503 7.62116 9.39904C7.40041 9.23305 7.08697 9.2775 6.92104 9.49832C6.9181 9.50226 6.91522 9.5062 6.91241 9.5102C4.0216 13.4858 4.44697 18.9734 7.91591 22.4556C8.11141 22.6513 8.42854 22.6514 8.62416 22.4559C8.81979 22.2603 8.81991 21.9431 8.62441 21.7474Z" fill="black"/>
</g>
<defs>
<clipPath id="clip0">
<rect y="0.389954" width="30" height="30.0102" fill="white"/>
</clipPath>
</defs>
</svg>
