<svg width="9" height="9" viewBox="0 0 9 9" fill="none" xmlns="http://www.w3.org/2000/svg">
<g opacity="0.8">
<path d="M8.03599 1.77158L5.51471 4.49968L8.03361 7.22519C8.40846 7.63079 8.40846 8.28698 8.03361 8.69516C7.84738 8.89666 7.60145 9 7.35553 9C7.10961 9 6.86369 8.89925 6.67746 8.69516L4.15857 5.96706L1.63728 8.69516C1.45105 8.89666 1.20513 9 0.95921 9C0.713289 9 0.467369 8.89925 0.281137 8.69516C-0.0937125 8.28956 -0.0937125 7.63337 0.281137 7.22519L2.80003 4.49968L0.281137 1.77158C-0.0937125 1.36598 -0.0937125 0.709795 0.281137 0.304198C0.655987 -0.101399 1.26243 -0.101399 1.63728 0.304198L4.15857 3.03229L6.67746 0.304198C7.05231 -0.101399 7.65876 -0.101399 8.03361 0.304198C8.41084 0.709795 8.41084 1.36598 8.03599 1.77158Z" fill="#D6D6D6"/>
</g>
</svg>
