<svg width="20" height="20" viewBox="0 0 20 20" fill="none" xmlns="http://www.w3.org/2000/svg">
<g clip-path="url(#clip0)">
<path d="M10.1409 0.137378C10.3126 0 10.4156 0 10.9652 0C11.2399 0 11.652 0.0343543 11.8924 0.0687086C13.0258 0.206087 13.7471 0.37782 14.7431 0.858624C15.7391 1.33947 16.3573 1.78592 17.2159 2.57587C18.0058 3.33147 18.418 3.91534 18.8988 4.84263C19.5514 6.11339 19.8948 7.59024 19.9635 9.23878C19.9979 9.78829 19.9635 9.92567 19.8261 10.0974C19.5857 10.4065 19.0362 10.3722 18.8301 9.99438C18.7614 9.89135 18.7614 9.78829 18.7271 9.34184C18.6928 8.65495 18.6584 8.20846 18.5554 7.65895C18.1776 5.56392 17.1473 3.88102 15.4987 2.67894C14.1249 1.68293 12.9228 1.30515 11.0682 1.16777C10.4157 1.16777 10.3126 1.16777 10.1752 1.0304C9.90048 0.858624 9.90048 0.377781 10.1409 0.137378Z" fill="#363636"/>
<path d="M13.541 4.43055C12.8885 4.05277 11.8925 3.74366 10.9995 3.67495C10.6904 3.64059 10.4844 3.57192 10.3813 3.43454C10.1752 3.26281 10.1752 2.9537 10.3126 2.74765C10.4843 2.4729 10.7591 2.43854 11.549 2.57592C13.541 2.85068 15.0865 3.77801 16.1169 5.25482C16.7007 6.07909 17.0442 7.07509 17.1472 8.10544C17.1816 8.48322 17.1816 9.17015 17.1472 9.30753C17.1129 9.41056 16.9755 9.58229 16.8381 9.61664C16.7007 9.68535 16.426 9.68535 16.2886 9.58229C16.0482 9.44491 15.9451 9.27318 15.9451 8.72367C15.9451 7.8994 15.7391 7.00642 15.3269 6.31953C14.9148 5.52957 14.2966 4.87704 13.541 4.43055Z" fill="#363636"/>
<path d="M14.3996 8.96403C14.1935 9.13577 13.8501 9.13577 13.644 8.96403C13.4723 8.86101 13.4379 8.72363 13.4036 8.38017C13.3693 7.93368 13.2662 7.62457 13.1632 7.34981C12.8884 6.73159 12.3733 6.42251 11.5147 6.31945C11.1025 6.2851 10.9995 6.21643 10.8621 6.07905C10.6217 5.80429 10.7248 5.3578 11.0339 5.18607C11.1712 5.11736 11.2056 5.11736 11.4804 5.15172C11.6521 5.15172 11.8925 5.18607 12.0299 5.22042C12.6824 5.3578 13.1632 5.59821 13.6097 5.97603C14.1592 6.49118 14.4684 7.07505 14.5714 7.96803C14.64 8.5519 14.6057 8.7923 14.3996 8.96403Z" fill="#363636"/>
<path d="M19.9291 16.2796C19.9291 15.9705 19.8261 15.7301 19.62 15.4897C19.4139 15.2493 18.0058 14.1159 17.3189 13.6694C16.8038 13.326 16.0138 12.8452 15.6704 12.6734C15.1895 12.433 14.7087 12.3987 14.2622 12.5361C14.1592 12.5704 14.0905 12.6048 14.0218 12.6391C13.8158 12.7421 13.6441 12.9482 13.2319 13.429C12.9572 13.7725 12.7168 14.0815 12.6824 14.0815C12.6824 14.0815 12.6481 14.0815 12.6481 14.1159C12.6137 14.1502 12.5107 14.1846 12.442 14.2189C11.9955 14.425 11.4116 14.2876 10.45 13.8411C9.69437 13.4634 9.04183 13.0169 8.28623 12.33C7.6337 11.7461 6.98112 11.0249 6.63769 10.441C6.15685 9.68539 5.81343 8.72374 5.81343 8.17422C5.81343 7.93382 5.91645 7.62471 6.01951 7.45298L6.05387 7.41862C6.05387 7.41862 6.05387 7.41862 6.08822 7.38427C6.12257 7.34991 6.15693 7.31556 6.19125 7.31556C6.32862 7.21254 6.50036 7.0408 6.67209 6.90343C7.462 6.2852 7.63374 6.07915 7.7368 5.73569C7.83982 5.39222 7.7368 4.94577 7.39333 4.32755C6.77503 3.19421 5.05783 1.03047 4.4396 0.618334C4.33658 0.549626 4.16485 0.480956 4.06182 0.412247C3.78707 0.343539 3.40929 0.309223 3.2032 0.343539C2.89409 0.412247 2.51631 0.65265 1.65769 1.27083C1.14253 1.64861 0.455598 2.30119 0.283904 2.57595C-0.0938761 3.22848 -0.0595607 3.74368 0.386928 5.01444C0.799063 6.14782 1.34858 7.28121 1.9668 8.38023L2.00115 8.41459C2.13853 8.62067 2.27591 8.86108 2.41329 9.06713C2.41329 9.10148 2.44764 9.10148 2.44764 9.13583C2.58502 9.34192 2.7224 9.58232 2.85977 9.78837C2.92848 9.85708 2.9628 9.9601 3.03151 10.0288C3.13453 10.2005 3.23759 10.3379 3.37497 10.5096C3.5467 10.75 3.71844 10.9905 3.92449 11.2309C5.88213 13.7724 8.14889 15.8331 10.8278 17.516C10.8621 17.5503 10.8965 17.5503 10.9308 17.5847C11.3429 17.8251 11.7551 18.0655 12.1672 18.3059C12.2359 18.3403 12.2702 18.3747 12.3389 18.409C12.7511 18.6494 13.1976 18.8555 13.6441 19.0615C13.6784 19.0959 13.7471 19.0959 13.7814 19.1302C14.2279 19.3363 14.7087 19.5424 15.1896 19.7484C15.7734 19.9888 15.9795 20.0232 16.426 19.9888C16.6321 19.9888 16.8381 19.9545 17.0098 19.8858C17.2846 19.8171 17.525 19.6797 17.8341 19.4737C17.9028 19.4393 17.9371 19.405 18.0058 19.3707C18.0746 19.3363 18.1432 19.2676 18.2119 19.1989C18.5897 18.8898 19.0019 18.409 19.3453 17.9625C19.5857 17.6534 19.7574 17.3443 19.8605 17.1039C19.8948 16.7604 19.9291 16.52 19.9291 16.2796Z" fill="#363636"/>
</g>
<defs>
<clipPath id="clip0">
<rect width="20" height="20" fill="white"/>
</clipPath>
</defs>
</svg>
