<svg width="82" height="74" viewBox="0 0 82 74" fill="none" xmlns="http://www.w3.org/2000/svg">
<g opacity="0.2">
<path d="M52.5312 71.1094C52.1102 71.1094 51.6966 70.9547 51.3988 70.6859C51.101 70.4172 50.9296 70.044 50.9296 69.6641C50.9296 69.2841 51.101 68.9109 51.3988 68.6422C51.6966 68.3734 52.1102 68.2188 52.5312 68.2188C52.9522 68.2188 53.3658 68.3734 53.6635 68.6422C53.9613 68.9109 54.1328 69.2841 54.1328 69.6641C54.1328 70.044 53.9613 70.4172 53.6635 70.6859C53.3658 70.9547 52.9522 71.1094 52.5312 71.1094Z" fill="#363636"/>
<path d="M73.2765 37.4375L81.9249 12.8672C81.9737 12.7289 82 12.5821 82 12.4297V4.33594C82 3.53763 81.2831 2.89062 80.3984 2.89062H1.60156C0.716949 2.89062 0 3.53763 0 4.33594V12.4297C0 12.5821 0.0262756 12.7289 0.0750732 12.8672L8.72351 37.4375C8.89993 37.9389 9.36414 38.3138 9.93594 38.4171L14.1482 39.1776L0.216461 60.8448C0.216461 60.8454 0.217087 60.8454 0.217087 60.846C0.0800781 61.0588 0 61.3061 0 61.5703V69.6641C0 70.4624 0.716949 71.1094 1.60156 71.1094H45.8047C46.6893 71.1094 47.4062 70.4624 47.4062 69.6641C47.4062 68.8658 46.6893 68.2188 45.8047 68.2188H3.20312V63.0156H78.7969V68.2188H58.6973C57.8127 68.2188 57.0957 68.8658 57.0957 69.6641C57.0957 70.4624 57.8127 71.1094 58.6973 71.1094H80.3984C81.2831 71.1094 82 70.4624 82 69.6641V61.5703C82 61.3061 81.9199 61.0588 81.7829 60.8454C81.7829 60.8454 81.7835 60.8454 81.7835 60.8448L67.8518 39.1776L72.0641 38.4171C72.6359 38.3143 73.1001 37.9389 73.2765 37.4375ZM3.20312 5.78125H78.7969V10.9844H74.1567C74.1517 10.9844 74.1467 10.9844 74.1417 10.9844H7.86017C7.85391 10.9844 7.84766 10.9844 7.8414 10.9844H3.20312V5.78125ZM17.8374 36.7109L12.79 21.9688H30.9102C31.7948 21.9688 32.5117 21.3217 32.5117 20.5234C32.5117 19.7251 31.7948 19.0781 30.9102 19.0781H11.8003L10.0185 13.875H71.9809L64.162 36.7109H17.8374ZM63.7422 39.6016V44.8047H18.2578V39.6016H63.7422ZM11.4906 35.75L3.79057 13.875H6.6665L14.3315 36.2627L11.4906 35.75ZM4.3824 60.125L15.0547 43.5271V45.944L8.08727 60.125H4.3824ZM11.5907 60.125L17.6979 47.6953H64.3021L70.4093 60.125H11.5907ZM77.6176 60.125H73.9127L66.9453 45.944V43.5271L77.6176 60.125ZM67.6685 36.2627L75.3335 13.875H78.2094L70.5094 35.75L67.6685 36.2627Z" fill="#363636"/>
<path d="M36.7559 21.9688C36.3348 21.9688 35.9213 21.8141 35.6235 21.5453C35.3257 21.2766 35.1543 20.9034 35.1543 20.5234C35.1543 20.1435 35.3257 19.7703 35.6235 19.5016C35.9213 19.2328 36.3348 19.0781 36.7559 19.0781C37.1769 19.0781 37.5904 19.2328 37.8882 19.5016C38.186 19.7703 38.3574 20.1435 38.3574 20.5234C38.3574 20.9034 38.186 21.2766 37.8882 21.5453C37.5904 21.8141 37.1769 21.9688 36.7559 21.9688Z" fill="#363636"/>
</g>
</svg>
